STARTFONT 2.3
FONT -FontForge-Monoton-Book-R-Normal--14-140-72-72-P-95-ISO10646-1
SIZE 14 72 72  4
FONTBOUNDINGBOX 26 23 -2 -6
COMMENT "Generated by fontforge, http://fontforge.sourceforge.net"
COMMENT "Copyright (c) 2011 by vernon adams. All rights reserved."
STARTPROPERTIES 41
FOUNDRY "FontForge"
FAMILY_NAME "Monoton"
WEIGHT_NAME "Book"
SLANT "R"
SETWIDTH_NAME "Normal"
ADD_STYLE_NAME ""
PIXEL_SIZE 14
POINT_SIZE 140
RESOLUTION_X 72
RESOLUTION_Y 72
SPACING "P"
AVERAGE_WIDTH 95
CHARSET_REGISTRY "ISO10646"
CHARSET_ENCODING "1"
FONTNAME_REGISTRY ""
CHARSET_COLLECTIONS "ISO8859-2 ISO8859-9 ISO8859-4 ISO10646-1"
BITS_PER_PIXEL 4
FONT_NAME "Monoton-Regular"
FACE_NAME "Monoton"
COPYRIGHT "Copyright (c) 2011 by vernon adams. All rights reserved."
FONT_VERSION "1.000"
FONT_ASCENT 11
FONT_DESCENT 3
UNDERLINE_POSITION -1
UNDERLINE_THICKNESS 1
X_HEIGHT 9
CAP_HEIGHT 11
DEFAULT_CHAR 1
RAW_ASCENT 799
RAW_DESCENT 200
NORM_SPACE 2
RELATIVE_WEIGHT 40
RELATIVE_SETWIDTH 50
SUPERSCRIPT_X 0
SUPERSCRIPT_Y 4
SUPERSCRIPT_SIZE 8
SUBSCRIPT_X 0
SUBSCRIPT_Y 1
SUBSCRIPT_SIZE 8
AVG_LOWERCASE_WIDTH 102
AVG_UPPERCASE_WIDTH 111
ENDPROPERTIES
CHARS 372
STARTCHAR glyph1.dup1
ENCODING 0
SWIDTH 108 0
DWIDTH 2 0
BBX 1 1 0 0
BITMAP
00
ENDCHAR
STARTCHAR uni0002
ENCODING 2
SWIDTH 108 0
DWIDTH 2 0
BBX 1 1 0 0
BITMAP
00
ENDCHAR
STARTCHAR uni0009
ENCODING 9
SWIDTH 108 0
DWIDTH 2 0
BBX 1 1 0 0
BITMAP
00
ENDCHAR
STARTCHAR uni000A
ENCODING 10
SWIDTH 108 0
DWIDTH 2 0
BBX 1 1 0 0
BITMAP
00
ENDCHAR
STARTCHAR uni000D
ENCODING 13
SWIDTH 108 0
DWIDTH 2 0
BBX 1 1 0 0
BITMAP
00
ENDCHAR
STARTCHAR space
ENCODING 32
SWIDTH 108 0
DWIDTH 2 0
BBX 1 1 0 0
BITMAP
00
ENDCHAR
STARTCHAR exclam
ENCODING 33
SWIDTH 336 0
DWIDTH 5 0
BBX 5 13 0 -1
BITMAP
233300
588810
588810
588810
588810
588810
588810
588810
588810
000000
377710
377710
388810
ENDCHAR
STARTCHAR quotedbl
ENCODING 34
SWIDTH 538 0
DWIDTH 8 0
BBX 7 6 0 6
BITMAP
22202220
68808880
68808880
68808880
68808880
11101110
ENDCHAR
STARTCHAR numbersign
ENCODING 35
SWIDTH 1014 0
DWIDTH 14 0
BBX 14 13 0 -1
BITMAP
00002665026640
00006773067720
00578786788866
00768897687975
01767797677873
00067720677200
00087800888000
00088800878000
18677987778830
38877789777810
57878678886600
00888008780000
02665026650000
ENDCHAR
STARTCHAR dollar
ENCODING 36
SWIDTH 686 0
DWIDTH 10 0
BBX 10 16 0 -2
BITMAP
0001120000
0004370000
0037777500
0677778781
2788777730
7876776100
7786653000
4778877910
0878888670
0188879881
0001177872
0078779870
2678777780
2877777810
0025643000
0004380000
ENDCHAR
STARTCHAR percent
ENCODING 37
SWIDTH 1504 0
DWIDTH 21 0
BBX 21 13 0 -1
BITMAP
0038783000122100000000
0678777500778200000000
2797778720888000000000
7776867770888000000000
7878187773785038785000
6777877767781578786700
1797778718881797788640
0377777307876777867770
0016761047847888287770
0000000077814778777770
0000000088800887778710
0000000178700287777400
0000000477400005761000
ENDCHAR
STARTCHAR ampersand
ENCODING 38
SWIDTH 1029 0
DWIDTH 14 0
BBX 14 12 0 0
BITMAP
00025554122210
01878887288840
08788887288840
57798887288840
78883222288840
57878888788888
178B8888788887
78868777788888
78877777477794
48888888388785
08788888347885
00688888304885
ENDCHAR
STARTCHAR quotesingle
ENCODING 39
SWIDTH 257 0
DWIDTH 4 0
BBX 3 6 0 6
BITMAP
2220
6880
6880
6880
6880
1110
ENDCHAR
STARTCHAR parenleft
ENCODING 40
SWIDTH 410 0
DWIDTH 6 0
BBX 6 13 0 -1
BITMAP
002872
058882
189772
577782
788800
788800
788800
788800
788800
677682
289872
067882
004872
ENDCHAR
STARTCHAR parenright
ENCODING 41
SWIDTH 408 0
DWIDTH 6 0
BBX 6 13 0 -1
BITMAP
477100
487920
476880
488881
048883
038884
038884
038884
038883
497872
486990
488830
478200
ENDCHAR
STARTCHAR asterisk
ENCODING 42
SWIDTH 664 0
DWIDTH 9 0
BBX 9 9 0 1
BITMAP
0006660000
0458882600
087A887830
4878968760
04A5E97800
4786848760
078B888720
0318880400
0004440000
ENDCHAR
STARTCHAR plus
ENCODING 43
SWIDTH 601 0
DWIDTH 8 0
BBX 8 7 0 2
BITMAP
00666600
00788800
37B88877
37B88877
47B88877
00788800
00344400
ENDCHAR
STARTCHAR comma
ENCODING 44
SWIDTH 252 0
DWIDTH 4 0
BBX 3 5 0 -2
BITMAP
3440
7880
3780
3880
3840
ENDCHAR
STARTCHAR hyphen
ENCODING 45
SWIDTH 473 0
DWIDTH 7 0
BBX 6 3 0 4
BITMAP
377777
377777
377777
ENDCHAR
STARTCHAR period
ENCODING 46
SWIDTH 255 0
DWIDTH 4 0
BBX 3 3 0 0
BITMAP
3770
3880
3880
ENDCHAR
STARTCHAR slash
ENCODING 47
SWIDTH 447 0
DWIDTH 6 0
BBX 6 14 0 -2
BITMAP
000222
000888
001787
004784
007881
008880
017870
047840
078810
088800
178700
478400
788100
233000
ENDCHAR
STARTCHAR zero
ENCODING 48
SWIDTH 843 0
DWIDTH 12 0
BBX 12 13 0 -1
BITMAP
000377772000
007777778500
066878878740
188877867880
577760087772
777800038774
777700018775
777710047774
377781188771
088777786780
037877778810
004877778200
000047640000
ENDCHAR
STARTCHAR one
ENCODING 49
SWIDTH 426 0
DWIDTH 6 0
BBX 6 12 0 0
BITMAP
355552
588883
588883
139995
018885
018885
018885
018885
018885
018885
018885
018885
ENDCHAR
STARTCHAR two
ENCODING 50
SWIDTH 583 0
DWIDTH 8 0
BBX 8 12 0 0
BITMAP
48777600
38888791
27778777
08776888
00007788
00067775
00487890
01888820
08887500
49999771
48888882
48888882
ENDCHAR
STARTCHAR three
ENCODING 51
SWIDTH 612 0
DWIDTH 9 0
BBX 9 13 0 -1
BITMAP
4877760000
3877878200
2777868800
0777888710
0045888810
0068889700
0067787700
0067788800
0211877710
1887798800
3887787700
4887778000
1567620000
ENDCHAR
STARTCHAR four
ENCODING 52
SWIDTH 622 0
DWIDTH 9 0
BBX 9 12 0 0
BITMAP
0003222200
0008887100
0057778000
0088872000
0477880000
0887645500
3788808800
6999979920
4888888830
4888888830
0000006600
0000008800
ENDCHAR
STARTCHAR five
ENCODING 53
SWIDTH 691 0
DWIDTH 10 0
BBX 10 13 0 -1
BITMAP
1555555510
2888888820
2888888820
4995222210
4886774000
4887777820
4887776790
3776778773
0001047884
0078779872
2778778780
3877888710
0036762000
ENDCHAR
STARTCHAR six
ENCODING 54
SWIDTH 781 0
DWIDTH 11 0
BBX 11 13 0 -1
BITMAP
001677773000
029777887600
088787776000
477877740000
777747750000
777757788400
777757778910
777757777760
787740188880
378977787760
086877878910
008877888200
000257630000
ENDCHAR
STARTCHAR seven
ENCODING 55
SWIDTH 631 0
DWIDTH 9 0
BBX 9 12 0 0
BITMAP
3555322220
5888778750
5888878710
1222888800
0000788800
0003787500
0007787100
0008888000
0008888000
0037875000
0078872000
0088880000
ENDCHAR
STARTCHAR eight
ENCODING 56
SWIDTH 808 0
DWIDTH 11 0
BBX 11 13 0 -1
BITMAP
003877774000
067777787800
288777777760
677687778880
777776687870
477888888770
196888878740
578888877780
777711197770
576877768880
188777779740
028787778600
000478761000
ENDCHAR
STARTCHAR nine
ENCODING 57
SWIDTH 782 0
DWIDTH 11 0
BBX 11 13 0 -1
BITMAP
002777861000
058887779200
289777778900
777677787840
887732488870
577888588870
087888588870
017888588870
000132577860
001787798720
028788886700
048777787000
000467510000
ENDCHAR
STARTCHAR colon
ENCODING 58
SWIDTH 262 0
DWIDTH 4 0
BBX 4 7 0 2
BITMAP
2660
3881
3881
1110
3770
3881
3881
ENDCHAR
STARTCHAR semicolon
ENCODING 59
SWIDTH 261 0
DWIDTH 4 0
BBX 4 9 0 0
BITMAP
2660
3881
3881
1110
3330
6881
3781
3970
3850
ENDCHAR
STARTCHAR less
ENCODING 60
SWIDTH 670 0
DWIDTH 9 0
BBX 9 11 0 0
BITMAP
0000000470
0000278770
0048778760
4878778760
4878878610
4877882000
4884777850
2887877860
0016878860
0000037760
0000000040
ENDCHAR
STARTCHAR equal
ENCODING 61
SWIDTH 473 0
DWIDTH 7 0
BBX 6 7 0 2
BITMAP
266666
388888
388888
111111
377777
388888
388888
ENDCHAR
STARTCHAR greater
ENCODING 62
SWIDTH 670 0
DWIDTH 9 0
BBX 9 11 0 0
BITMAP
4610000000
4778400000
4778787100
4788787790
0488768860
0016877860
2887877860
3887877850
3787872000
3785000000
3200000000
ENDCHAR
STARTCHAR question
ENCODING 63
SWIDTH 693 0
DWIDTH 10 0
BBX 10 12 0 0
BITMAP
0277776000
5878788820
0677777880
0037788773
0111167784
0788578882
0788688670
0788588700
0788231000
0677200000
0688200000
0688200000
ENDCHAR
STARTCHAR at
ENCODING 64
SWIDTH 1076 0
DWIDTH 15 0
BBX 15 14 0 -1
BITMAP
0000013430000000
0002888877720000
0058788887875000
0379784348786400
0887438785388700
4677488787757750
7771887888808780
7770888068818780
7672887788818780
4688487767786770
0987727729677920
0389688772677200
0049788882000000
0001788883000000
ENDCHAR
STARTCHAR A
ENCODING 65
SWIDTH 936 0
DWIDTH 13 0
BBX 13 12 0 0
BITMAP
00002222200000
00008888800000
00018987720000
00067577770000
00088788880000
00377797775000
00887728888000
01888808877200
06777777777700
08888676888800
37778777877740
88772000178880
ENDCHAR
STARTCHAR B
ENCODING 66
SWIDTH 862 0
DWIDTH 12 0
BBX 12 12 0 0
BITMAP
255555553000
568888887820
586888888880
588688888776
588832228777
588868876776
58886888B773
588867776877
588867777787
588868888874
588868888790
588868888700
ENDCHAR
STARTCHAR C
ENCODING 67
SWIDTH 852 0
DWIDTH 12 0
BBX 12 13 0 -1
BITMAP
000167776100
004877777850
047978787974
089767787850
477780007200
777710000000
777700000000
777720000000
378883029500
088787778673
018787778892
001877777810
000026762000
ENDCHAR
STARTCHAR D
ENCODING 68
SWIDTH 886 0
DWIDTH 12 0
BBX 12 12 0 0
BITMAP
255555541000
568888878600
586888888670
588688879874
588832266788
588810008888
588810007888
588810008888
588877787778
588888887982
588888888750
598888888300
ENDCHAR
STARTCHAR E
ENCODING 69
SWIDTH 706 0
DWIDTH 10 0
BBX 10 12 0 0
BITMAP
2222555552
5888888882
5888888882
5888322221
5888100000
5888876000
5888876000
5888876000
5888100000
5888877772
5888888882
5888888882
ENDCHAR
STARTCHAR F
ENCODING 70
SWIDTH 683 0
DWIDTH 10 0
BBX 9 12 0 0
BITMAP
2222555550
5888888880
5888888880
5888322220
5888100000
5888766650
5888888860
5888888860
5888211110
5888100000
5888100000
5888100000
ENDCHAR
STARTCHAR G
ENCODING 71
SWIDTH 908 0
DWIDTH 13 0
BBX 13 13 0 -1
BITMAP
00016777610000
00487777785000
04797878797400
08976778785000
47778000720000
77771000000000
78780000477720
78871000488820
37889301888820
08777778A88820
02877888A88820
00287778A88820
00002676300000
ENDCHAR
STARTCHAR H
ENCODING 72
SWIDTH 901 0
DWIDTH 13 0
BBX 12 12 0 0
BITMAP
222200002222
588810007777
588810007777
588810007777
588810007777
58888777B777
58888777B777
58888777B777
588810007777
588810007777
588810007777
588810007777
ENDCHAR
STARTCHAR I
ENCODING 73
SWIDTH 338 0
DWIDTH 5 0
BBX 5 12 0 0
BITMAP
222200
588810
588810
588810
588810
588810
588810
588810
588810
588810
588810
588810
ENDCHAR
STARTCHAR J
ENCODING 74
SWIDTH 434 0
DWIDTH 6 0
BBX 6 13 0 -1
BITMAP
002332
008887
008887
008887
008887
008887
008887
008887
028886
579873
577780
577810
574000
ENDCHAR
STARTCHAR K
ENCODING 75
SWIDTH 815 0
DWIDTH 11 0
BBX 11 12 0 0
BITMAP
222200033330
588810277880
588810887730
588813778800
588818877200
588847788000
588887775000
588828888000
588817777500
588811888800
588810777750
588810188880
ENDCHAR
STARTCHAR L
ENCODING 76
SWIDTH 604 0
DWIDTH 8 0
BBX 8 12 0 0
BITMAP
22220000
58881000
58881000
58881000
58881000
58881000
58881000
58881000
58881000
58888777
58888888
58888888
ENDCHAR
STARTCHAR M
ENCODING 77
SWIDTH 920 0
DWIDTH 13 0
BBX 13 12 0 0
BITMAP
22220000033210
59880000188B40
58776000777840
54888001789640
58777608777840
58588837897840
58867797768840
58858885978840
5888577C588840
58881000388840
58881000388840
58881000388840
ENDCHAR
STARTCHAR N
ENCODING 78
SWIDTH 877 0
DWIDTH 12 0
BBX 12 12 0 0
BITMAP
222330002222
5A8873007777
567788007777
569777607777
584888817777
587767887777
588598775777
588847888677
588817777777
588811888857
588810567887
588810088779
ENDCHAR
STARTCHAR O
ENCODING 79
SWIDTH 933 0
DWIDTH 13 0
BBX 13 13 0 -1
BITMAP
00016777610000
00487777785000
04797878797400
08976777679810
47778000867750
77771000077770
77770000077770
77772000277770
37888303978740
08878777878800
01878777888200
00187777782000
00002676200000
ENDCHAR
STARTCHAR P
ENCODING 80
SWIDTH 850 0
DWIDTH 12 0
BBX 12 12 0 0
BITMAP
255555542000
568888887810
586888888780
588688889873
588832247886
588845577786
588858888882
588858878780
588858878600
588821110000
588810000000
588810000000
ENDCHAR
STARTCHAR Q
ENCODING 81
SWIDTH 937 0
DWIDTH 13 0
BBX 13 14 0 -2
BITMAP
00016777610000
00487777785000
04797878797400
08976777679810
47778000867750
77771000077770
77770000277770
77772027777770
37888366978740
08878777878800
01878777888200
00187777796400
00002676278300
00000000040000
ENDCHAR
STARTCHAR R
ENCODING 82
SWIDTH 843 0
DWIDTH 12 0
BBX 12 12 0 0
BITMAP
255555542000
568888887810
586888888780
588688889872
588832247775
588868887774
588868877881
588868877750
58886899B800
588810888800
588810588830
588810088870
ENDCHAR
STARTCHAR S
ENCODING 83
SWIDTH 682 0
DWIDTH 10 0
BBX 10 13 0 -1
BITMAP
0047777500
0767778781
3788777720
7776775100
7777653000
5678877910
0878888670
0188879870
0001187871
0078778870
2778777670
3877777800
0036762000
ENDCHAR
STARTCHAR T
ENCODING 84
SWIDTH 591 0
DWIDTH 8 0
BBX 8 12 0 0
BITMAP
35555554
48888886
48888886
12888822
00777700
00777700
00777700
00777700
00777700
00777700
00777700
00777700
ENDCHAR
STARTCHAR U
ENCODING 85
SWIDTH 905 0
DWIDTH 13 0
BBX 13 13 0 -1
BITMAP
23330000222200
78880000688810
78880000688810
78880000688810
78880000688810
78880000688810
78880000688810
68872000778700
37779204788800
08767777877500
02877887768000
00287777770000
00003675100000
ENDCHAR
STARTCHAR V
ENCODING 86
SWIDTH 940 0
DWIDTH 13 0
BBX 13 12 0 0
BITMAP
33320000033330
67774000277880
18888000777730
08887100888800
04777705777600
00888808888100
00677757788000
00178887773000
00088588880000
00047877760000
00008888810000
00007778800000
ENDCHAR
STARTCHAR W
ENCODING 87
SWIDTH 1161 0
DWIDTH 16 0
BBX 16 12 0 0
BITMAP
3222002223002223
777710777D108888
4777537778617777
0877877778857773
0877788898888880
07774787D7798880
0377977787977760
0087978788B77720
0086888888888800
0064787757988800
002B77741A777500
000B88700B787200
ENDCHAR
STARTCHAR X
ENCODING 88
SWIDTH 876 0
DWIDTH 12 0
BBX 12 12 0 0
BITMAP
332220022223
477880088774
087776776780
018886788810
006779877500
000877788000
000288876000
000877797400
004778868800
008887777770
077677188873
278881047788
ENDCHAR
STARTCHAR Y
ENCODING 89
SWIDTH 789 0
DWIDTH 11 0
BBX 11 12 0 0
BITMAP
222200022220
588820188860
088870788800
068882888600
017889888100
006758887000
001798881000
000788870000
000388840000
000388840000
000388840000
000388840000
ENDCHAR
STARTCHAR Z
ENCODING 90
SWIDTH 854 0
DWIDTH 12 0
BBX 12 12 0 0
BITMAP
255555555552
3888888874A3
388888847883
388886387873
122226887873
000187878840
005887878100
187878850000
377878577773
478867888883
478788888883
5C8888888883
ENDCHAR
STARTCHAR bracketleft
ENCODING 91
SWIDTH 320 0
DWIDTH 4 0
BBX 5 13 0 -1
BITMAP
487710
578710
587810
588200
588200
588200
588200
588200
588200
588200
588810
589810
587710
ENDCHAR
STARTCHAR backslash
ENCODING 92
SWIDTH 448 0
DWIDTH 6 0
BBX 6 14 0 -2
BITMAP
222000
777100
477400
078700
088800
077710
047750
007770
008880
007771
004775
000777
000888
000223
ENDCHAR
STARTCHAR bracketright
ENCODING 93
SWIDTH 319 0
DWIDTH 4 0
BBX 4 13 0 -1
BITMAP
4779
4797
4977
0777
0777
0777
0777
0777
0777
0777
4A77
58A7
477A
ENDCHAR
STARTCHAR asciicircum
ENCODING 94
SWIDTH 475 0
DWIDTH 7 0
BBX 7 6 0 4
BITMAP
00864000
01788000
06787100
08827600
27608800
44104410
ENDCHAR
STARTCHAR underscore
ENCODING 95
SWIDTH 511 0
DWIDTH 7 0
BBX 7 3 0 -3
BITMAP
38888840
38888840
37777740
ENDCHAR
STARTCHAR grave
ENCODING 96
SWIDTH 472 0
DWIDTH 7 0
BBX 6 4 0 10
BITMAP
010000
378500
058785
000584
ENDCHAR
STARTCHAR a
ENCODING 97
SWIDTH 832 0
DWIDTH 12 0
BBX 12 12 0 -1
BITMAP
000001100000
002888885000
048777787800
198688888760
576795768880
887710078780
878700068881
677771278881
189778888881
058888888881
003888888881
000013300000
ENDCHAR
STARTCHAR b
ENCODING 98
SWIDTH 720 0
DWIDTH 10 0
BBX 10 10 0 0
BITMAP
5877777820
5387777781
5478778657
5473334777
5476778834
5476777834
5473334777
5475778767
5475777872
5473777840
ENDCHAR
STARTCHAR c
ENCODING 99
SWIDTH 736 0
DWIDTH 10 0
BBX 10 12 0 -1
BITMAP
0000254100
0038788881
0478788878
1887887961
5777834510
7888000000
7888000000
6777702500
1788777851
0568777777
0058777782
0001576300
ENDCHAR
STARTCHAR d
ENCODING 100
SWIDTH 833 0
DWIDTH 12 0
BBX 12 10 0 0
BITMAP
587777784000
578777787700
587877778660
588787768880
588810077782
588810077782
588877778880
588888887770
588888887900
598888886000
ENDCHAR
STARTCHAR e
ENCODING 101
SWIDTH 666 0
DWIDTH 9 0
BBX 9 10 0 0
BITMAP
5666877760
5888877760
5888877760
5888322210
5888888840
5888888840
5888544420
5888877760
5888888860
5888888860
ENDCHAR
STARTCHAR f
ENCODING 102
SWIDTH 625 0
DWIDTH 9 0
BBX 9 10 0 0
BITMAP
5666877720
5888877720
5888877720
5888100000
5888877700
5888877700
5888877700
5888100000
5888100000
5888100000
ENDCHAR
STARTCHAR g
ENCODING 103
SWIDTH 827 0
DWIDTH 12 0
BBX 11 12 0 -1
BITMAP
000025410000
003878888100
047878887800
188788796100
577783451000
788800000000
788800067770
6777701A8880
1788778B8880
0568777B8880
0058777B8880
000157630000
ENDCHAR
STARTCHAR h
ENCODING 104
SWIDTH 830 0
DWIDTH 12 0
BBX 11 10 0 0
BITMAP
566610067760
588810078880
588810078880
5888766A8880
5888888B8880
5888888B8880
588821188880
588810078880
588810078880
588810078880
ENDCHAR
STARTCHAR i
ENCODING 105
SWIDTH 337 0
DWIDTH 5 0
BBX 5 10 0 0
BITMAP
566610
588810
588810
588810
588810
588810
588810
588810
588810
588810
ENDCHAR
STARTCHAR j
ENCODING 106
SWIDTH 393 0
DWIDTH 6 0
BBX 5 12 0 -2
BITMAP
066660
077770
077770
077770
077770
077770
077770
087870
577870
579810
578300
450000
ENDCHAR
STARTCHAR k
ENCODING 107
SWIDTH 801 0
DWIDTH 11 0
BBX 11 10 0 0
BITMAP
566610266770
588810877740
588813778800
588818877200
588837777000
588857776000
588818888100
588815777700
588810888720
588810377880
ENDCHAR
STARTCHAR l
ENCODING 108
SWIDTH 583 0
DWIDTH 8 0
BBX 8 10 0 0
BITMAP
56661000
58881000
58881000
58881000
58881000
58881000
58881000
58888775
58888886
58888886
ENDCHAR
STARTCHAR m
ENCODING 109
SWIDTH 1167 0
DWIDTH 16 0
BBX 16 11 0 0
BITMAP
0001442001452000
0177778988877720
08687888A9888781
378988878B888777
6887428889328887
7888007777007777
7888007777007777
7888007777007777
7888007777007777
7888007777007777
7888007777007777
ENDCHAR
STARTCHAR n
ENCODING 110
SWIDTH 787 0
DWIDTH 11 0
BBX 11 10 0 0
BITMAP
567770017750
5A7677018860
558888118860
578677818860
585888748860
588577896860
588187777860
588127898560
588107767960
588101888860
ENDCHAR
STARTCHAR o
ENCODING 111
SWIDTH 833 0
DWIDTH 12 0
BBX 12 12 0 -1
BITMAP
000025410000
003878887100
047878886900
188788797670
577783479870
788800067772
788800058772
677770288870
178877787670
056877787810
005877778100
000157630000
ENDCHAR
STARTCHAR p
ENCODING 112
SWIDTH 781 0
DWIDTH 11 0
BBX 11 10 0 0
BITMAP
587777784000
578777786600
587877788720
588787777760
588858868760
588858788720
588858787700
588858884000
588810000000
588810000000
ENDCHAR
STARTCHAR q
ENCODING 113
SWIDTH 788 0
DWIDTH 11 0
BBX 11 12 0 -2
BITMAP
002877777850
047777778760
179777787860
777787878860
787800188860
787775488860
378888688860
086888688860
007888688860
000012288860
000000188860
000000044430
ENDCHAR
STARTCHAR r
ENCODING 114
SWIDTH 831 0
DWIDTH 12 0
BBX 12 10 0 0
BITMAP
587777777200
578777777730
587877777880
588787788772
588867787772
588867777890
588867777840
5888689AB500
588810888800
588810788810
ENDCHAR
STARTCHAR s
ENCODING 115
SWIDTH 683 0
DWIDTH 10 0
BBX 10 12 0 -1
BITMAP
0000110000
0288887720
1878878871
7767668520
8774220000
4787888810
0688887690
0013459881
0175448871
4788887670
1787888800
0002320000
ENDCHAR
STARTCHAR t
ENCODING 116
SWIDTH 588 0
DWIDTH 8 0
BBX 8 10 0 0
BITMAP
47777776
47777776
47888876
00888800
00888800
00888800
00888800
00888800
00888800
00888800
ENDCHAR
STARTCHAR u
ENCODING 117
SWIDTH 795 0
DWIDTH 11 0
BBX 11 11 0 -1
BITMAP
666600066660
788800088880
788800088880
788800088880
788800088880
687800088880
577760577870
178877788720
056877786700
005777776000
000157610000
ENDCHAR
STARTCHAR v
ENCODING 118
SWIDTH 855 0
DWIDTH 12 0
BBX 12 10 0 0
BITMAP
666620026666
377870077773
088880088880
067774477760
017888888710
008884788800
004779777300
000878888000
000757776000
0001C8771000
ENDCHAR
STARTCHAR w
ENCODING 119
SWIDTH 1129 0
DWIDTH 16 0
BBX 16 11 0 -1
BITMAP
6666006666037773
7888007777048883
7888007777048883
7888007777048883
7888007777048883
7888007777048883
678743778B377883
378977877B878980
08688888B8879650
0078888887878600
0001331002430000
ENDCHAR
STARTCHAR x
ENCODING 120
SWIDTH 790 0
DWIDTH 11 0
BBX 11 10 0 0
BITMAP
656780765560
098768689810
047878987400
008687678000
001878981000
000987691000
007678968000
027898787300
098769678900
667890987670
ENDCHAR
STARTCHAR y
ENCODING 121
SWIDTH 733 0
DWIDTH 10 0
BBX 10 10 0 0
BITMAP
6666006666
2888617776
0788877771
0278777860
0078788810
0027788700
0009888100
0007888000
0007888000
0007888000
ENDCHAR
STARTCHAR z
ENCODING 122
SWIDTH 714 0
DWIDTH 10 0
BBX 10 10 0 0
BITMAP
3888875673
3888789764
3888976770
0003789710
0009876600
0066788000
0289873000
0976797773
4789878884
5876888884
ENDCHAR
STARTCHAR braceleft
ENCODING 123
SWIDTH 396 0
DWIDTH 6 0
BBX 6 15 0 -3
BITMAP
003871
038771
087671
087800
088800
088800
475800
578300
577700
187700
088800
088800
088771
047871
005871
ENDCHAR
STARTCHAR bar
ENCODING 124
SWIDTH 266 0
DWIDTH 4 0
BBX 4 14 0 -2
BITMAP
2331
5882
5882
5882
5882
5882
5882
5882
5882
5882
5882
5882
5882
3441
ENDCHAR
STARTCHAR braceright
ENCODING 125
SWIDTH 396 0
DWIDTH 6 0
BBX 6 15 0 -3
BITMAP
487100
476900
488730
038850
028850
028750
008871
007771
018781
028850
028850
028850
497730
477900
488100
ENDCHAR
STARTCHAR asciitilde
ENCODING 126
SWIDTH 665 0
DWIDTH 9 0
BBX 9 4 0 7
BITMAP
0155552220
2878886880
7748888850
1102222000
ENDCHAR
STARTCHAR uni00A0
ENCODING 160
SWIDTH 108 0
DWIDTH 2 0
BBX 1 1 0 0
BITMAP
00
ENDCHAR
STARTCHAR exclamdown
ENCODING 161
SWIDTH 336 0
DWIDTH 5 0
BBX 5 13 0 -1
BITMAP
233300
588810
588810
588810
588810
588810
588810
588810
588810
000000
377710
377710
388810
ENDCHAR
STARTCHAR cent
ENCODING 162
SWIDTH 708 0
DWIDTH 10 0
BBX 10 15 0 -2
BITMAP
0000413000
0000716000
0006777500
0297778781
0977878773
4778877700
7777101100
7777000000
6777848300
1887878850
0578787874
0049888840
0000232000
0000816000
0000201000
ENDCHAR
STARTCHAR sterling
ENCODING 163
SWIDTH 689 0
DWIDTH 10 0
BBX 10 12 0 0
BITMAP
0037777600
0577778782
1887777740
5777876200
7888000000
7888688700
7888688700
7888688700
7888000000
7888777700
7888888700
7888888700
ENDCHAR
STARTCHAR currency
ENCODING 164
SWIDTH 715 0
DWIDTH 10 0
BBX 10 12 0 -1
BITMAP
0040000400
3773003783
377A88A773
0597777950
0674003770
0870000780
0870000780
0577007750
0797887970
5679889776
0581001850
0010000100
ENDCHAR
STARTCHAR yen
ENCODING 165
SWIDTH 796 0
DWIDTH 11 0
BBX 11 12 0 0
BITMAP
222200022220
577720177760
077770677710
057773777700
007789777100
006767777000
000797772000
000687770000
037688887300
038788888400
000288850000
000288840000
ENDCHAR
STARTCHAR brokenbar
ENCODING 166
SWIDTH 263 0
DWIDTH 4 0
BBX 4 14 0 -2
BITMAP
2330
6881
6881
6881
6881
6881
1110
0000
5771
6881
6881
6881
6881
3441
ENDCHAR
STARTCHAR section
ENCODING 167
SWIDTH 108 0
DWIDTH 2 0
BBX 1 1 0 0
BITMAP
00
ENDCHAR
STARTCHAR dieresis
ENCODING 168
SWIDTH 556 0
DWIDTH 8 0
BBX 8 2 0 10
BITMAP
67703773
45502552
ENDCHAR
STARTCHAR copyright
ENCODING 169
SWIDTH 869 0
DWIDTH 12 0
BBX 12 12 0 0
BITMAP
00028AA94000
007A30028900
07807BB92590
1B0A6003A093
665800000038
83840000001B
84850000001A
473B00001057
0C17A437B0B1
04B138850960
003B7436B500
000047740000
ENDCHAR
STARTCHAR ordfeminine
ENCODING 170
SWIDTH 833 0
DWIDTH 12 0
BBX 12 12 0 -1
BITMAP
000001100000
002888886000
038787787800
097688887770
477796779880
787710078881
778800048882
577771268882
089778878882
048888878882
003888878882
000013300000
ENDCHAR
STARTCHAR guillemotleft
ENCODING 171
SWIDTH 911 0
DWIDTH 13 0
BBX 13 8 0 1
BITMAP
00001600000520
00388700278710
48788728778710
38778328778500
38857728866710
28878717878710
00168700048710
00000200000110
ENDCHAR
STARTCHAR logicalnot
ENCODING 172
SWIDTH 718 0
DWIDTH 10 0
BBX 10 5 0 3
BITMAP
2666666333
3888888887
3888888887
0111111887
0000000887
ENDCHAR
STARTCHAR registered
ENCODING 174
SWIDTH 869 0
DWIDTH 12 0
BBX 12 12 0 0
BITMAP
00028AA94000
007A30028900
078033310590
1B02C88B5093
6602A001B038
8302B449701B
8402C7B8001A
4702A02B0057
0C12A00A40B1
04B100001960
003B7436B500
000047740000
ENDCHAR
STARTCHAR degree
ENCODING 176
SWIDTH 330 0
DWIDTH 5 0
BBX 5 5 0 10
BITMAP
046200
487800
672920
289700
002000
ENDCHAR
STARTCHAR plusminus
ENCODING 177
SWIDTH 598 0
DWIDTH 8 0
BBX 8 9 0 0
BITMAP
00677600
00788800
47B88876
47B88876
47B88876
00788800
00444400
07777774
07777774
ENDCHAR
STARTCHAR uni00B2
ENCODING 178
SWIDTH 435 0
DWIDTH 6 0
BBX 6 10 0 2
BITMAP
024410
288885
153388
000486
001880
008810
068400
266000
488882
488882
ENDCHAR
STARTCHAR uni00B3
ENCODING 179
SWIDTH 515 0
DWIDTH 7 0
BBX 7 11 0 1
BITMAP
03441000
58888500
38879820
14257850
01789640
01777820
01776780
05448780
28878670
37778700
01331000
ENDCHAR
STARTCHAR acute
ENCODING 180
SWIDTH 472 0
DWIDTH 7 0
BBX 6 4 0 10
BITMAP
000011
001787
178782
158200
ENDCHAR
STARTCHAR uni00B5
ENCODING 181
SWIDTH 802 0
DWIDTH 11 0
BBX 11 12 0 -2
BITMAP
477710066660
588820088880
588820088880
588820088880
588820088880
588820088880
588820377880
588867797740
588867787800
588868778000
588857620000
244410000000
ENDCHAR
STARTCHAR paragraph
ENCODING 182
SWIDTH 676 0
DWIDTH 9 0
BBX 9 12 0 -2
BITMAP
0048777790
0768777980
3788779880
7776798880
77767A8880
37887A8880
08687A8880
00588A8880
0000088880
0000088880
0000088880
0000056560
ENDCHAR
STARTCHAR periodcentered
ENCODING 183
SWIDTH 260 0
DWIDTH 4 0
BBX 3 3 0 5
BITMAP
3770
3770
3770
ENDCHAR
STARTCHAR cedilla
ENCODING 184
SWIDTH 321 0
DWIDTH 5 0
BBX 4 6 0 -6
BITMAP
0022
0777
4687
5763
2876
0133
ENDCHAR
STARTCHAR uni00B9
ENCODING 185
SWIDTH 359 0
DWIDTH 5 0
BBX 5 9 0 3
BITMAP
355520
588830
139960
018860
018860
018860
018860
018860
004430
ENDCHAR
STARTCHAR ordmasculine
ENCODING 186
SWIDTH 835 0
DWIDTH 12 0
BBX 12 12 0 -1
BITMAP
000025410000
003878888100
038788886910
088788897670
477793489871
788810057773
788800048773
577781288871
189777787780
057877787820
004877778200
000047730000
ENDCHAR
STARTCHAR guillemotright
ENCODING 187
SWIDTH 912 0
DWIDTH 13 0
BBX 13 8 0 1
BITMAP
33000015000000
37861017872000
37877817877820
16878805877820
28588817668820
38878617878710
38830017840000
21000011000000
ENDCHAR
STARTCHAR onequarter
ENCODING 188
SWIDTH 1236 0
DWIDTH 17 0
BBX 17 14 0 -2
BITMAP
355520012220000000
588830057730000000
249950088700011100
028850088800777400
028850177701889000
028850577307775000
028850887008982520
028850888046563630
014431777047777770
000005773047777770
000008770047778980
000008880000004840
000017770000000000
000012210000000000
ENDCHAR
STARTCHAR onehalf
ENCODING 189
SWIDTH 1154 0
DWIDTH 16 0
BBX 16 14 0 -2
BITMAP
3555200122200000
5888300577300000
2499500887000000
0288500888277781
0288501777187778
0288505773000188
0288508870000882
0288508880005760
0144317770028800
0000057730088100
0000087700599772
0000088800488883
0000177700000000
0000122100000000
ENDCHAR
STARTCHAR threequarters
ENCODING 190
SWIDTH 1345 0
DWIDTH 19 0
BBX 19 14 0 -2
BITMAP
03440000012220000000
58888500067730000000
38879810088700111000
14257850088801888000
01789740277607775000
01777820677208880000
01776780887067765500
05448780888077716600
28888662776077777740
37778706772077777740
01331008870077779940
00000008880000008800
00000027760000000000
00000012210000000000
ENDCHAR
STARTCHAR questiondown
ENCODING 191
SWIDTH 693 0
DWIDTH 10 0
BBX 10 12 0 0
BITMAP
0277776000
5878788820
0677777880
0037788773
0111167784
0788578882
0788688670
0788588700
0788231000
0677200000
0688200000
0688200000
ENDCHAR
STARTCHAR Agrave
ENCODING 192
SWIDTH 936 0
DWIDTH 13 0
BBX 13 17 0 0
BITMAP
00010000000000
00678200000000
00178782000000
00001772000000
00000000000000
00002222200000
00008888800000
00018987720000
00067577770000
00088788880000
00377797775000
00887728888000
01888808877200
06777777777700
08888676888800
37778777877740
88772000178880
ENDCHAR
STARTCHAR Aacute
ENCODING 193
SWIDTH 936 0
DWIDTH 13 0
BBX 13 17 0 0
BITMAP
00000000010000
00000001776000
00000277782000
00000267200000
00000000000000
00002222200000
00008888800000
00018987720000
00067577770000
00088788880000
00377797775000
00887728888000
01888808877200
06777777777700
08888676888800
37778777877740
88772000178880
ENDCHAR
STARTCHAR Acircumflex
ENCODING 194
SWIDTH 936 0
DWIDTH 13 0
BBX 13 16 0 0
BITMAP
00000577000000
00000888000000
00003787400000
00003313300000
00002222200000
00008888800000
00018987720000
00067577770000
00088788880000
00377797775000
00887728888000
01888808877200
06777777777700
08888676888800
37778777877740
88772000178880
ENDCHAR
STARTCHAR Atilde
ENCODING 195
SWIDTH 936 0
DWIDTH 13 0
BBX 13 16 0 0
BITMAP
00025555122000
00477888678000
00774888883000
00110222200000
00002222200000
00008888800000
00018987720000
00067577770000
00088788880000
00377797775000
00887728888000
01888808877200
06777777777700
08888676888800
37778777877740
88772000178880
ENDCHAR
STARTCHAR Adieresis
ENCODING 196
SWIDTH 936 0
DWIDTH 13 0
BBX 13 14 0 0
BITMAP
00077706660000
00055505550000
00002222200000
00008888800000
00018987720000
00067577770000
00088788880000
00377797775000
00887728888000
01888808877200
06777777777700
08888676888800
37778777877740
88772000178880
ENDCHAR
STARTCHAR Aring
ENCODING 197
SWIDTH 936 0
DWIDTH 13 0
BBX 13 16 0 0
BITMAP
00000263000000
00001868200000
00004917500000
00000898100000
00002243200000
00008888800000
00018987720000
00067577770000
00088788880000
00377797775000
00887728888000
01888808877200
06777777777700
08888676888800
37778777877740
88772000178880
ENDCHAR
STARTCHAR AE
ENCODING 198
SWIDTH 1198 0
DWIDTH 17 0
BBX 17 12 0 0
BITMAP
000022225555555510
00008888A888888820
000188877888888820
000675777822222210
000887888800000000
0037779777A7777300
0088772888B7777300
018888088788777300
067777777786000000
088886778888777720
377887778778988820
877720001888A88820
ENDCHAR
STARTCHAR Ccedilla
ENCODING 199
SWIDTH 852 0
DWIDTH 12 0
BBX 12 18 0 -6
BITMAP
000167776100
004877777850
047978787974
089767787850
477780007200
777710000000
777700000000
777720000000
378883029500
088787778673
018787778892
001877777810
000027972000
000048640000
000087830000
000079310000
000077720000
000003410000
ENDCHAR
STARTCHAR Egrave
ENCODING 200
SWIDTH 706 0
DWIDTH 10 0
BBX 10 17 0 0
BITMAP
0100000000
3785000000
0587850000
0005840000
0000000000
2222555552
5888888882
5888888882
5888322221
5888100000
5888876000
5888876000
5888876000
5888100000
5888877772
5888888882
5888888882
ENDCHAR
STARTCHAR Eacute
ENCODING 201
SWIDTH 706 0
DWIDTH 10 0
BBX 10 17 0 0
BITMAP
0000000010
0000005873
0000587850
0000484000
0000000000
2222555552
5888888882
5888888882
5888322221
5888100000
5888876000
5888876000
5888876000
5888100000
5888877772
5888888882
5888888882
ENDCHAR
STARTCHAR Ecircumflex
ENCODING 202
SWIDTH 706 0
DWIDTH 10 0
BBX 10 16 0 0
BITMAP
0000B70000
0005675000
0008688000
0003333000
2222555552
5888888882
5888888882
5888322221
5888100000
5888876000
5888876000
5888876000
5888100000
5888877772
5888888882
5888888882
ENDCHAR
STARTCHAR Edieresis
ENCODING 203
SWIDTH 706 0
DWIDTH 10 0
BBX 10 14 0 0
BITMAP
0577127740
0455125530
2222555552
5888888882
5888888882
5888322221
5888100000
5888876000
5888876000
5888876000
5888100000
5888877772
5888888882
5888888882
ENDCHAR
STARTCHAR Igrave
ENCODING 204
SWIDTH 338 0
DWIDTH 5 0
BBX 7 17 -2 0
BITMAP
11000000
78710000
28787100
00286100
00000000
00222200
00588810
00588810
00588810
00588810
00588810
00588810
00588810
00588810
00588810
00588810
00588810
ENDCHAR
STARTCHAR Iacute
ENCODING 205
SWIDTH 338 0
DWIDTH 5 0
BBX 7 17 0 0
BITMAP
00000100
00028750
03878710
02771000
00000000
22220000
58881000
58881000
58881000
58881000
58881000
58881000
58881000
58881000
58881000
58881000
58881000
ENDCHAR
STARTCHAR Icircumflex
ENCODING 206
SWIDTH 338 0
DWIDTH 5 0
BBX 5 16 0 0
BITMAP
086400
178800
678720
331320
222200
588810
588810
588810
588810
588810
588810
588810
588810
588810
588810
588810
ENDCHAR
STARTCHAR Idieresis
ENCODING 207
SWIDTH 338 0
DWIDTH 5 0
BBX 7 14 -1 0
BITMAP
77606660
55505550
02222000
05888100
05888100
05888100
05888100
05888100
05888100
05888100
05888100
05888100
05888100
05888100
ENDCHAR
STARTCHAR Eth
ENCODING 208
SWIDTH 905 0
DWIDTH 13 0
BBX 13 12 0 0
BITMAP
15555554200000
28888888781000
28888888878000
28888887977700
27775224788800
57777400777720
57777400578730
59998400888710
28889778688800
288A8888887500
28A88888877000
2A888888850000
ENDCHAR
STARTCHAR Ntilde
ENCODING 209
SWIDTH 877 0
DWIDTH 12 0
BBX 12 16 0 0
BITMAP
000455541320
008688878630
007968887800
001112221000
222330002222
5A8873007777
567788007777
569777607777
584888817777
587767887777
588598775777
588847888677
588817777777
588811888857
588810567887
588810088779
ENDCHAR
STARTCHAR Ograve
ENCODING 210
SWIDTH 933 0
DWIDTH 13 0
BBX 13 18 0 -1
BITMAP
00010000000000
00677200000000
00277782000000
00001762000000
00000000000000
00016777610000
00487777785000
04797878797400
08976777679810
47778000867750
77771000077770
77770000077770
77772000277770
37888303978740
08878777878800
01878777888200
00187777782000
00002676200000
ENDCHAR
STARTCHAR Oacute
ENCODING 211
SWIDTH 933 0
DWIDTH 13 0
BBX 13 18 0 -1
BITMAP
00000000010000
00000001776000
00000287782000
00000267200000
00000000000000
00016777610000
00487777785000
04797878797400
08976777679810
47778000867750
77771000077770
77770000077770
77772000277770
37888303978740
08878777878800
01878777888200
00187777782000
00002676200000
ENDCHAR
STARTCHAR Ocircumflex
ENCODING 212
SWIDTH 933 0
DWIDTH 13 0
BBX 13 17 0 -1
BITMAP
00000676000000
00000888000000
00003787400000
00003313300000
00016777610000
00487777785000
04797878797400
08976777679810
47778000867750
77771000077770
77770000077770
77772000277770
37888303978740
08878777878800
01878777888200
00187777782000
00002676200000
ENDCHAR
STARTCHAR Otilde
ENCODING 213
SWIDTH 933 0
DWIDTH 13 0
BBX 13 17 0 -1
BITMAP
00025555122000
00477888677000
00774888883000
00110222200000
00016777610000
00487777785000
04797878797400
08976777679810
47778000867750
77771000077770
77770000077770
77772000277770
37888303978740
08878777878800
01878777888200
00187777782000
00002676200000
ENDCHAR
STARTCHAR Odieresis
ENCODING 214
SWIDTH 933 0
DWIDTH 13 0
BBX 13 15 0 -1
BITMAP
00077706660000
00055505550000
00016777610000
00487777785000
04797878797400
08976777679810
47778000867750
77771000077770
77770000077770
77772000277770
37888303978740
08878777878800
01878777888200
00187777782000
00002676200000
ENDCHAR
STARTCHAR multiply
ENCODING 215
SWIDTH 790 0
DWIDTH 11 0
BBX 11 10 0 0
BITMAP
656780765560
098768689810
047878987400
008687678000
001878981000
000987691000
007678968000
027898787300
098769678900
667890987670
ENDCHAR
STARTCHAR Oslash
ENCODING 216
SWIDTH 938 0
DWIDTH 13 0
BBX 13 17 0 -3
BITMAP
00000000020000
00000000575100
00016777868100
00487777786000
04797878797400
08976777678810
57778000877750
77771000088780
87770000088770
77772000277770
37888303877740
08878777867800
01878777888200
00587777782000
01777676200000
01573000000000
00010000000000
ENDCHAR
STARTCHAR Ugrave
ENCODING 217
SWIDTH 905 0
DWIDTH 13 0
BBX 13 18 0 -1
BITMAP
00110000000000
01787100000000
00387871000000
00003851000000
00000000000000
23330000222200
78880000688810
78880000688810
78880000688810
78880000688810
78880000688810
78880000688810
68872000778700
37779204788800
08767777877500
02877887768000
00287777770000
00003675100000
ENDCHAR
STARTCHAR Uacute
ENCODING 218
SWIDTH 905 0
DWIDTH 13 0
BBX 13 18 0 -1
BITMAP
00000000010000
00000003875000
00000387871000
00000276100000
00000000000000
23330000222200
78880000688810
78880000688810
78880000688810
78880000688810
78880000688810
78880000688810
68872000778700
37779204788800
08767777877500
02877887768000
00287777770000
00003675100000
ENDCHAR
STARTCHAR Ucircumflex
ENCODING 219
SWIDTH 905 0
DWIDTH 13 0
BBX 13 17 0 -1
BITMAP
00000964000000
00001788000000
00006788100000
00003323200000
23330000222200
78880000688810
78880000688810
78880000688810
78880000688810
78880000688810
78880000688810
68872000778700
37779204788800
08767777877500
02877887768000
00287777770000
00003675100000
ENDCHAR
STARTCHAR Udieresis
ENCODING 220
SWIDTH 905 0
DWIDTH 13 0
BBX 13 15 0 -1
BITMAP
00077606660000
00055405550000
23330000222200
78880000688810
78880000688810
78880000688810
78880000688810
78880000688810
78880000688810
68872000778700
37779204788800
08767777877500
02877887768000
00287777770000
00003675100000
ENDCHAR
STARTCHAR Yacute
ENCODING 221
SWIDTH 789 0
DWIDTH 11 0
BBX 11 17 0 0
BITMAP
000000001000
000000277600
000028778200
000026720000
000000000000
222200022220
588820188860
088870788800
068882888600
017889888100
006758887000
001798881000
000788870000
000388840000
000388840000
000388840000
000388840000
ENDCHAR
STARTCHAR Thorn
ENCODING 222
SWIDTH 798 0
DWIDTH 11 0
BBX 11 13 0 -1
BITMAP
466610000000
588888740000
588887879100
588888777900
588898797750
588810278880
588810088780
588854767770
588867788730
588878786600
588878785000
588833200000
588810000000
ENDCHAR
STARTCHAR germandbls
ENCODING 223
SWIDTH 826 0
DWIDTH 12 0
BBX 12 13 0 -1
BITMAP
003777776000
057877786800
189777787660
577787778880
688844598880
688868786770
688868888780
688822277881
688857798781
688868886780
688868887930
688868888200
677700000000
ENDCHAR
STARTCHAR agrave
ENCODING 224
SWIDTH 832 0
DWIDTH 12 0
BBX 12 16 0 -1
BITMAP
001000000000
057820000000
017878300000
000177200000
000001100000
002888885000
048777787800
198688888760
576795768880
887710078780
878700068881
677771278881
189778888881
058888888881
003888888881
000013300000
ENDCHAR
STARTCHAR aacute
ENCODING 225
SWIDTH 832 0
DWIDTH 12 0
BBX 12 16 0 -1
BITMAP
000000001100
000000178700
000017878200
000015820000
000001100000
002888885000
048777787800
198688888760
576795768880
887710078780
878700068881
677771278881
189778888881
058888888881
003888888881
000013300000
ENDCHAR
STARTCHAR acircumflex
ENCODING 226
SWIDTH 832 0
DWIDTH 12 0
BBX 12 15 0 -1
BITMAP
000047700000
000088810000
000178760000
000230330000
002888885000
048777787800
198688888760
576795768880
887710078780
878700068881
677771278881
189778888881
058888888881
003888888881
000013300000
ENDCHAR
STARTCHAR atilde
ENCODING 227
SWIDTH 832 0
DWIDTH 12 0
BBX 12 15 0 -1
BITMAP
002555522200
038788868800
077488888400
011023320000
002888885000
048777787800
198688888760
576795768880
887710078780
878700068881
677771278881
189778888881
058888888881
003888888881
000013300000
ENDCHAR
STARTCHAR adieresis
ENCODING 228
SWIDTH 832 0
DWIDTH 12 0
BBX 12 14 0 -1
BITMAP
007770666000
005550555000
000001100000
002888885000
048777787800
198688888760
576795768880
887710078780
878700068881
677771278881
189778888881
058888888881
003888888881
000013300000
ENDCHAR
STARTCHAR aring
ENCODING 229
SWIDTH 832 0
DWIDTH 12 0
BBX 12 16 0 -1
BITMAP
000016400000
000087740000
0001A2760000
000079820000
000003100000
002888885000
048777787800
198688888760
576795768880
887710078780
878700068881
677771278881
189778888881
058888888881
003888888881
000013300000
ENDCHAR
STARTCHAR ae
ENCODING 230
SWIDTH 1166 0
DWIDTH 16 0
BBX 16 12 0 -1
BITMAP
0000011000000000
0028888834787776
048777787A787776
1986888887C87776
5767957688B32221
8877100787888884
8787000688888884
6777712788854442
1897788888887775
0588888888888886
0038888888888886
0000133000000000
ENDCHAR
STARTCHAR ccedilla
ENCODING 231
SWIDTH 736 0
DWIDTH 10 0
BBX 10 17 0 -6
BITMAP
0000254100
0038788881
0478788878
1887887961
5777834510
7888000000
7888000000
6777702500
1788777851
0568777777
0058777782
0001598300
0002757000
0007675000
0007842000
0005774000
0000242000
ENDCHAR
STARTCHAR egrave
ENCODING 232
SWIDTH 666 0
DWIDTH 9 0
BBX 9 15 0 0
BITMAP
0100000000
5783000000
1787830000
0017720000
0000000000
5666877760
5888877760
5888877760
5888322210
5888888840
5888888840
5888544420
5888877760
5888888860
5888888860
ENDCHAR
STARTCHAR eacute
ENCODING 233
SWIDTH 666 0
DWIDTH 9 0
BBX 10 15 0 0
BITMAP
0000000110
0000017871
0001787830
0001583000
0000000000
5666877760
5888877760
5888877760
5888322210
5888888840
5888888840
5888544420
5888877760
5888888860
5888888860
ENDCHAR
STARTCHAR ecircumflex
ENCODING 234
SWIDTH 666 0
DWIDTH 9 0
BBX 9 14 0 0
BITMAP
0003870000
0008771000
0017777000
0023233000
5666877760
5888877760
5888877760
5888322210
5888888840
5888888840
5888544420
5888877760
5888888860
5888888860
ENDCHAR
STARTCHAR edieresis
ENCODING 235
SWIDTH 666 0
DWIDTH 9 0
BBX 9 13 0 0
BITMAP
0777067700
0555045500
0000000000
5666877760
5888877760
5888877760
5888322210
5888888840
5888888840
5888544420
5888877760
5888888860
5888888860
ENDCHAR
STARTCHAR igrave
ENCODING 236
SWIDTH 337 0
DWIDTH 5 0
BBX 7 15 -2 0
BITMAP
11000000
78710000
28787100
00286100
00000000
00566610
00588810
00588810
00588810
00588810
00588810
00588810
00588810
00588810
00588810
ENDCHAR
STARTCHAR iacute
ENCODING 237
SWIDTH 337 0
DWIDTH 5 0
BBX 7 15 0 0
BITMAP
00000100
00028750
03878710
02771000
00000000
56661000
58881000
58881000
58881000
58881000
58881000
58881000
58881000
58881000
58881000
ENDCHAR
STARTCHAR icircumflex
ENCODING 238
SWIDTH 337 0
DWIDTH 5 0
BBX 5 14 0 0
BITMAP
086400
178800
678720
331320
566610
588810
588810
588810
588810
588810
588810
588810
588810
588810
ENDCHAR
STARTCHAR idieresis
ENCODING 239
SWIDTH 337 0
DWIDTH 5 0
BBX 7 13 -1 0
BITMAP
77606660
55505550
00000000
05666100
05888100
05888100
05888100
05888100
05888100
05888100
05888100
05888100
05888100
ENDCHAR
STARTCHAR eth
ENCODING 240
SWIDTH 783 0
DWIDTH 11 0
BBX 11 13 0 -1
BITMAP
003777750000
077887779100
007777878800
001477788730
000010288860
017888588860
187788588860
766888588860
777843678850
777777788820
298777786800
038887787000
000477510000
ENDCHAR
STARTCHAR ntilde
ENCODING 241
SWIDTH 787 0
DWIDTH 11 0
BBX 11 14 0 0
BITMAP
002555512200
047788867700
078488878300
011022220000
567770017750
5A7677018860
558888118860
578677818860
585888748860
588577896860
588187777860
588127898560
588107767960
588101888860
ENDCHAR
STARTCHAR ograve
ENCODING 242
SWIDTH 833 0
DWIDTH 12 0
BBX 12 16 0 -1
BITMAP
001000000000
047830000000
016878400000
000068300000
000025410000
003878887100
047878886900
188788797670
577783479870
788800067772
788800058772
677770288870
178877787670
056877787810
005877778100
000157630000
ENDCHAR
STARTCHAR oacute
ENCODING 243
SWIDTH 833 0
DWIDTH 12 0
BBX 12 16 0 -1
BITMAP
000000000100
000000168710
000016878300
000015830000
000025410000
003878887100
047878886900
188788797670
577783479870
788800067772
788800058772
677770288870
178877787670
056877787810
005877778100
000157630000
ENDCHAR
STARTCHAR ocircumflex
ENCODING 244
SWIDTH 833 0
DWIDTH 12 0
BBX 12 15 0 -1
BITMAP
000029700000
000077720000
000087870000
000112130000
003878887100
047878886900
188788797670
577783479870
788800067772
788800058772
677770288870
178877787670
056877787810
005877778100
000157630000
ENDCHAR
STARTCHAR otilde
ENCODING 245
SWIDTH 833 0
DWIDTH 12 0
BBX 12 15 0 -1
BITMAP
001555532200
019788878800
057578887600
011047631000
003878887100
047878886900
188788797670
577783479870
788800067772
788800058772
677770288870
178877787670
056877787810
005877778100
000157630000
ENDCHAR
STARTCHAR odieresis
ENCODING 246
SWIDTH 833 0
DWIDTH 12 0
BBX 12 14 0 -1
BITMAP
007770577100
005550355100
000025410000
003878887100
047878886900
188788797670
577783479870
788800067772
788800058772
677770288870
178877787670
056877787810
005877778100
000157630000
ENDCHAR
STARTCHAR divide
ENCODING 247
SWIDTH 260 0
DWIDTH 4 0
BBX 5 9 -1 0
BITMAP
045510
068810
046610
366660
266660
012210
068810
068810
023300
ENDCHAR
STARTCHAR oslash
ENCODING 248
SWIDTH 832 0
DWIDTH 12 0
BBX 12 14 0 -2
BITMAP
000000002000
000025457410
003878889700
047888886900
188788797670
577783579880
777700068882
777700058882
677770289880
179777787780
057977777810
037877778100
036657630000
000300000000
ENDCHAR
STARTCHAR ugrave
ENCODING 249
SWIDTH 795 0
DWIDTH 11 0
BBX 11 16 0 -1
BITMAP
001000000000
067720000000
017778200000
000177200000
000000000000
666600066660
788800088880
788800088880
788800088880
788800088880
687800088880
577760577870
178877788720
056877786700
005777776000
000157610000
ENDCHAR
STARTCHAR uacute
ENCODING 250
SWIDTH 795 0
DWIDTH 11 0
BBX 11 16 0 -1
BITMAP
000000001000
000000177600
000027778200
000026720000
000000000000
666600066660
788800088880
788800088880
788800088880
788800088880
687800088880
577760577870
178877788720
056877786700
005777776000
000157610000
ENDCHAR
STARTCHAR ucircumflex
ENCODING 251
SWIDTH 795 0
DWIDTH 11 0
BBX 11 15 0 -1
BITMAP
000067600000
000088800000
000378740000
000331330000
666600066660
788800088880
788800088880
788800088880
788800088880
687800088880
577760577870
178877788720
056877786700
005777776000
000157610000
ENDCHAR
STARTCHAR udieresis
ENCODING 252
SWIDTH 795 0
DWIDTH 11 0
BBX 11 14 0 -1
BITMAP
007770666000
005550555000
000000000000
666600066660
788800088880
788800088880
788800088880
788800088880
687800088880
577760577870
178877788720
056877786700
005777776000
000157610000
ENDCHAR
STARTCHAR yacute
ENCODING 253
SWIDTH 733 0
DWIDTH 10 0
BBX 10 15 0 0
BITMAP
0000000010
0000004874
0000487860
0000386000
0000000000
6666006666
2888617776
0788877771
0278777860
0078788810
0027788700
0009888100
0007888000
0007888000
0007888000
ENDCHAR
STARTCHAR thorn
ENCODING 254
SWIDTH 833 0
DWIDTH 12 0
BBX 12 14 0 -2
BITMAP
233300000000
588810000000
588810000000
588825552000
588838877810
588838888690
588838879881
588813387873
588837779871
588837778660
588837777700
588815541000
588810000000
344410000000
ENDCHAR
STARTCHAR ydieresis
ENCODING 255
SWIDTH 733 0
DWIDTH 10 0
BBX 10 13 0 0
BITMAP
0377307760
0255305540
0000000000
6666006666
2888617776
0788877771
0278777860
0078788810
0027788700
0009888100
0007888000
0007888000
0007888000
ENDCHAR
STARTCHAR Amacron
ENCODING 256
SWIDTH 936 0
DWIDTH 13 0
BBX 13 12 0 0
BITMAP
00002222200000
00008888800000
00018987720000
00067577770000
00088788880000
00377797775000
00887728888000
01888808877200
06777777777700
08888676888800
37778777877740
88772000178880
ENDCHAR
STARTCHAR amacron
ENCODING 257
SWIDTH 832 0
DWIDTH 12 0
BBX 12 12 0 -1
BITMAP
000001100000
002888885000
048777787800
198688888760
576795768880
887710078780
878700068881
677771278881
189778888881
058888888881
003888888881
000013300000
ENDCHAR
STARTCHAR Abreve
ENCODING 258
SWIDTH 936 0
DWIDTH 13 0
BBX 13 15 0 0
BITMAP
00004525400000
00001798200000
00000000000000
00002222200000
00008888800000
00018987720000
00067577770000
00088788880000
00377797775000
00887728888000
01888808877200
06777777777700
08888676888800
37778777877740
88772000178880
ENDCHAR
STARTCHAR abreve
ENCODING 259
SWIDTH 832 0
DWIDTH 12 0
BBX 12 14 0 -1
BITMAP
000352540000
000179830000
000002100000
002888885000
048777787800
198688888760
576795768880
887710078780
878700068881
677771278881
189778888881
058888888881
003888888881
000013300000
ENDCHAR
STARTCHAR Aogonek
ENCODING 260
SWIDTH 937 0
DWIDTH 13 0
BBX 13 16 0 -4
BITMAP
00001222300000
00007888800000
00008877730000
00057678880000
00088788881000
00277887776000
00777738888000
00888807777300
05777876778800
08888677888810
28788777777760
77774540088880
00008640000000
00007800000000
00007770000000
00007770000000
ENDCHAR
STARTCHAR aogonek
ENCODING 261
SWIDTH 832 0
DWIDTH 12 0
BBX 12 16 0 -5
BITMAP
000001100000
002888885000
048777787800
198688888760
576795768880
887710078780
878700068881
677771278881
189778888881
058888888881
003888888881
000068300000
000765000000
000781000000
000777000000
000777000000
ENDCHAR
STARTCHAR Cacute
ENCODING 262
SWIDTH 852 0
DWIDTH 12 0
BBX 12 18 0 -1
BITMAP
000000000100
000000017760
000002877820
000002672000
000000000000
000167776100
004877777850
047978787974
089767787850
477780007200
777710000000
777700000000
777720000000
378883029500
088787778673
018787778892
001877777810
000026762000
ENDCHAR
STARTCHAR cacute
ENCODING 263
SWIDTH 736 0
DWIDTH 10 0
BBX 11 16 0 -1
BITMAP
000000000100
000000168710
000016878300
000015830000
000025410000
003878888100
047878887800
188788796100
577783451000
788800000000
788800000000
677770250000
178877785100
056877777700
005877778200
000157630000
ENDCHAR
STARTCHAR Cdotaccent
ENCODING 266
SWIDTH 852 0
DWIDTH 12 0
BBX 12 17 0 -1
BITMAP
000003540000
000005860000
000005860000
000001220000
000167776100
004877777850
047978787974
089767787850
477780007200
777710000000
777700000000
777720000000
378883029500
088787778673
018787778892
001877777810
000026762000
ENDCHAR
STARTCHAR cdotaccent
ENCODING 267
SWIDTH 736 0
DWIDTH 10 0
BBX 10 15 0 -1
BITMAP
0000255000
0000388000
0000388000
0000376100
0038788881
0478788878
1887887961
5777834510
7888000000
7888000000
6777702500
1788777851
0568777777
0058777782
0001576300
ENDCHAR
STARTCHAR Ccaron
ENCODING 268
SWIDTH 852 0
DWIDTH 12 0
BBX 12 17 0 -1
BITMAP
000056466000
000017972000
000008880000
000002330000
000167776100
004877777850
047978787974
089767787850
477780007200
777710000000
777700000000
777720000000
378883029500
088787778673
018787778892
001877777810
000026762000
ENDCHAR
STARTCHAR ccaron
ENCODING 269
SWIDTH 736 0
DWIDTH 10 0
BBX 10 16 0 -1
BITMAP
0002657700
0000867500
00006A8000
0000144000
0000254100
0038788881
0478788878
1887887961
5777834510
7888000000
7888000000
6777702500
1788777851
0568777777
0058777782
0001576300
ENDCHAR
STARTCHAR Dcaron
ENCODING 270
SWIDTH 886 0
DWIDTH 12 0
BBX 12 16 0 0
BITMAP
000077563000
000046880000
000009770000
000004310000
255555541000
568888878600
586888888670
588688879874
588832266788
588810008888
588810007888
588810008888
588877787778
588888887982
588888888750
598888888300
ENDCHAR
STARTCHAR dcaron
ENCODING 271
SWIDTH 1084 0
DWIDTH 15 0
BBX 15 11 0 0
BITMAP
0000000000003330
5877777840007770
5787777877004770
5878777786606670
5887877688806820
5888100777820000
5888100777820000
5888777788800000
5888888877700000
5888888879000000
5988888860000000
ENDCHAR
STARTCHAR Dcroat
ENCODING 272
SWIDTH 888 0
DWIDTH 12 0
BBX 13 12 -1 0
BITMAP
02555555410000
05688888786000
05868888886700
05886888798740
05888322668880
53888370088870
53888370088870
58888680088880
05888877877770
05888888879820
05888888887500
05988888883000
ENDCHAR
STARTCHAR dcroat
ENCODING 273
SWIDTH 833 0
DWIDTH 12 0
BBX 13 10 -1 0
BITMAP
05877777840000
05787777877000
05878777786600
05887877688800
53888470777820
58888670777820
05888777788800
05888888877700
05888888879000
05988888860000
ENDCHAR
STARTCHAR Emacron
ENCODING 274
SWIDTH 706 0
DWIDTH 10 0
BBX 10 12 0 0
BITMAP
2222555552
5888888882
5888888882
5888322221
5888100000
5888876000
5888876000
5888876000
5888100000
5888877772
5888888882
5888888882
ENDCHAR
STARTCHAR emacron
ENCODING 275
SWIDTH 666 0
DWIDTH 9 0
BBX 9 10 0 0
BITMAP
5666877760
5888877760
5888877760
5888322210
5888888840
5888888840
5888544420
5888877760
5888888860
5888888860
ENDCHAR
STARTCHAR Ebreve
ENCODING 276
SWIDTH 706 0
DWIDTH 10 0
BBX 10 15 0 0
BITMAP
0006446000
0005985000
0000000000
2222555552
5888888882
5888888882
5888322221
5888100000
5888876000
5888876000
5888876000
5888100000
5888877772
5888888882
5888888882
ENDCHAR
STARTCHAR ebreve
ENCODING 277
SWIDTH 666 0
DWIDTH 9 0
BBX 9 13 0 0
BITMAP
0036254000
0007983000
0000000000
5666877760
5888877760
5888877760
5888322210
5888888840
5888888840
5888544420
5888877760
5888888860
5888888860
ENDCHAR
STARTCHAR Edotaccent
ENCODING 278
SWIDTH 706 0
DWIDTH 10 0
BBX 10 15 0 0
BITMAP
0002771000
0002771000
0002771000
2222555552
5888888882
5888888882
5888322221
5888100000
5888876000
5888876000
5888876000
5888100000
5888877772
5888888882
5888888882
ENDCHAR
STARTCHAR edotaccent
ENCODING 279
SWIDTH 666 0
DWIDTH 9 0
BBX 9 14 0 0
BITMAP
0004770000
0004770000
0004770000
0000000000
5666877760
5888877760
5888877760
5888322210
5888888840
5888888840
5888544420
5888877760
5888888860
5888888860
ENDCHAR
STARTCHAR Eogonek
ENCODING 280
SWIDTH 706 0
DWIDTH 10 0
BBX 10 16 0 -4
BITMAP
2222555552
5888888882
5888888882
5888322221
5888100000
5888876000
5888876000
5888876000
5888100000
5888877772
5888888882
58888889E5
0000000962
0000002770
0000002884
0000002774
ENDCHAR
STARTCHAR eogonek
ENCODING 281
SWIDTH 666 0
DWIDTH 9 0
BBX 9 14 0 -4
BITMAP
5666877760
5888877760
5888877760
5888322210
5888888840
5888888840
5888544420
5888877760
5888888860
5888888CC0
0000006660
0000007810
0000007770
0000007770
ENDCHAR
STARTCHAR Ecaron
ENCODING 282
SWIDTH 706 0
DWIDTH 10 0
BBX 10 16 0 0
BITMAP
0007777000
0008487000
0003B72000
0000540000
2222555552
5888888882
5888888882
5888322221
5888100000
5888876000
5888876000
5888876000
5888100000
5888877772
5888888882
5888888882
ENDCHAR
STARTCHAR ecaron
ENCODING 283
SWIDTH 666 0
DWIDTH 9 0
BBX 9 15 0 0
BITMAP
0036577000
0008774000
0007980000
0001440000
0000000000
5666877760
5888877760
5888877760
5888322210
5888888840
5888888840
5888544420
5888877760
5888888860
5888888860
ENDCHAR
STARTCHAR Gbreve
ENCODING 286
SWIDTH 908 0
DWIDTH 13 0
BBX 13 16 0 -1
BITMAP
00004525400000
00001898200000
00000000000000
00016777610000
00487777785000
04797878797400
08976778785000
47778000720000
77771000000000
78780000477720
78871000488820
37889301888820
08777778A88820
02877888A88820
00287778A88820
00002676300000
ENDCHAR
STARTCHAR gbreve
ENCODING 287
SWIDTH 827 0
DWIDTH 12 0
BBX 11 14 0 -1
BITMAP
000263550000
000079840000
000025410000
003878888100
047878887800
188788796100
577783451000
788800000000
788800067770
6777701A8880
1788778B8880
0568777B8880
0058777B8880
000157630000
ENDCHAR
STARTCHAR Gdotaccent
ENCODING 288
SWIDTH 908 0
DWIDTH 13 0
BBX 13 17 0 -1
BITMAP
00000354000000
00000586000000
00000586000000
00000122000000
00016777610000
00487777785000
04797878797400
08976778785000
47778000720000
77771000000000
78780000477720
78871000488820
37889301888820
08777778A88820
02877888A88820
00287778A88820
00002676300000
ENDCHAR
STARTCHAR gdotaccent
ENCODING 289
SWIDTH 827 0
DWIDTH 12 0
BBX 11 15 0 -1
BITMAP
000025500000
000038800000
000038800000
000037610000
003878888100
047878887800
188788796100
577783451000
788800000000
788800067770
6777701A8880
1788778B8880
0568777B8880
0058777B8880
000157630000
ENDCHAR
STARTCHAR Gcommaaccent
ENCODING 290
SWIDTH 908 0
DWIDTH 13 0
BBX 13 18 0 -6
BITMAP
00016777610000
00487777785000
04797878797400
08976778785000
47778000720000
77771000000000
78780000477720
78871000488820
37889301888820
08777778A88820
02877888A88820
00287778A88820
00002676300000
00000888000000
00000787000000
00000187000000
00000566000000
00000430000000
ENDCHAR
STARTCHAR gcommaaccent
ENCODING 291
SWIDTH 827 0
DWIDTH 12 0
BBX 11 12 0 -1
BITMAP
000025410000
003878888100
047878887800
188788796100
577783451000
788800000000
788800067770
6777701A8880
1788778B8880
0568777B8880
0058777B8880
000157630000
ENDCHAR
STARTCHAR Hcircumflex
ENCODING 292
SWIDTH 901 0
DWIDTH 13 0
BBX 12 16 0 0
BITMAP
000009640000
000017880000
000067881000
000033232000
222200002222
588810007777
588810007777
588810007777
588810007777
58888777B777
58888777B777
58888777B777
588810007777
588810007777
588810007777
588810007777
ENDCHAR
STARTCHAR hcircumflex
ENCODING 293
SWIDTH 830 0
DWIDTH 12 0
BBX 11 14 0 0
BITMAP
000029700000
000077720000
000087870000
000132330000
566610067760
588810078880
588810078880
5888766A8880
5888888B8880
5888888B8880
588821188880
588810078880
588810078880
588810078880
ENDCHAR
STARTCHAR Hbar
ENCODING 294
SWIDTH 901 0
DWIDTH 13 0
BBX 14 12 -1 0
BITMAP
02333000023220
05888100078880
33888377758885
38888677798885
05888100078880
058888777B8880
058888777B8880
058888777B8880
05888100078880
05888100078880
05888100078880
05888100078880
ENDCHAR
STARTCHAR hbar
ENCODING 295
SWIDTH 830 0
DWIDTH 12 0
BBX 13 10 -1 0
BITMAP
05777100666600
23888377588750
28888677988750
05888766A88700
05888888B88700
05888888B88700
05888211788700
05888100788700
05888100788700
05888100788700
ENDCHAR
STARTCHAR Itilde
ENCODING 296
SWIDTH 338 0
DWIDTH 5 0
BBX 9 16 -2 0
BITMAP
0355550220
6688887660
7848887910
1112222000
0022220000
0058881000
0058881000
0058881000
0058881000
0058881000
0058881000
0058881000
0058881000
0058881000
0058881000
0058881000
ENDCHAR
STARTCHAR itilde
ENCODING 297
SWIDTH 337 0
DWIDTH 5 0
BBX 9 14 -2 0
BITMAP
0355550220
6688887660
7848887910
1112222000
0056661000
0058881000
0058881000
0058881000
0058881000
0058881000
0058881000
0058881000
0058881000
0058881000
ENDCHAR
STARTCHAR Imacron
ENCODING 298
SWIDTH 338 0
DWIDTH 5 0
BBX 5 12 0 0
BITMAP
222200
588810
588810
588810
588810
588810
588810
588810
588810
588810
588810
588810
ENDCHAR
STARTCHAR imacron
ENCODING 299
SWIDTH 337 0
DWIDTH 5 0
BBX 5 10 0 0
BITMAP
566610
588810
588810
588810
588810
588810
588810
588810
588810
588810
ENDCHAR
STARTCHAR Ibreve
ENCODING 300
SWIDTH 338 0
DWIDTH 5 0
BBX 5 15 0 0
BITMAP
452530
389710
000000
222200
588810
588810
588810
588810
588810
588810
588810
588810
588810
588810
588810
ENDCHAR
STARTCHAR ibreve
ENCODING 301
SWIDTH 337 0
DWIDTH 5 0
BBX 5 13 0 0
BITMAP
452530
389710
000000
566610
588810
588810
588810
588810
588810
588810
588810
588810
588810
ENDCHAR
STARTCHAR Iogonek
ENCODING 302
SWIDTH 338 0
DWIDTH 5 0
BBX 5 16 0 -4
BITMAP
222200
588810
588810
588810
588810
588810
588810
588810
588810
588810
588810
58AE20
028700
067300
068810
057710
ENDCHAR
STARTCHAR iogonek
ENCODING 303
SWIDTH 337 0
DWIDTH 5 0
BBX 5 14 0 -4
BITMAP
566610
588810
588810
588810
588810
588810
588810
588810
588810
58AE20
028710
057400
058810
057710
ENDCHAR
STARTCHAR Idotaccent
ENCODING 304
SWIDTH 338 0
DWIDTH 5 0
BBX 5 16 0 0
BITMAP
045300
078400
078400
022100
222200
588810
588810
588810
588810
588810
588810
588810
588810
588810
588810
588810
ENDCHAR
STARTCHAR dotlessi
ENCODING 305
SWIDTH 337 0
DWIDTH 5 0
BBX 5 10 0 0
BITMAP
566610
588810
588810
588810
588810
588810
588810
588810
588810
588810
ENDCHAR
STARTCHAR IJ
ENCODING 306
SWIDTH 774 0
DWIDTH 11 0
BBX 11 13 0 -1
BITMAP
222200133310
588810488830
588810488830
588810488830
588810488830
588810488830
588810488830
588810488830
588810688830
588817788800
588817787600
588817777000
000007620000
ENDCHAR
STARTCHAR ij
ENCODING 307
SWIDTH 729 0
DWIDTH 10 0
BBX 10 12 0 -2
BITMAP
5666106666
5888107777
5888107777
5888107777
5888107777
5888107777
5888107777
5888127787
5888179775
5888177780
0000077810
0000063000
ENDCHAR
STARTCHAR Jcircumflex
ENCODING 308
SWIDTH 434 0
DWIDTH 6 0
BBX 6 17 0 -1
BITMAP
003870
008771
017777
023233
002332
008887
008887
008887
008887
008887
008887
008887
028886
579873
577780
577810
574000
ENDCHAR
STARTCHAR jcircumflex
ENCODING 309
SWIDTH 393 0
DWIDTH 6 0
BBX 6 16 0 -2
BITMAP
00A620
037770
076880
033331
066660
077770
077770
077770
077770
077770
077770
087870
577870
579810
578300
450000
ENDCHAR
STARTCHAR Kcommaaccent
ENCODING 310
SWIDTH 815 0
DWIDTH 11 0
BBX 11 18 0 -6
BITMAP
222200033330
588810277880
588810887730
588813778800
588818877200
588847788000
588887775000
588828888000
588817777500
588811888800
588810777750
588810188880
000000000000
000058820000
000058820000
000008710000
000036900000
000025100000
ENDCHAR
STARTCHAR kcommaaccent
ENCODING 311
SWIDTH 801 0
DWIDTH 11 0
BBX 11 16 0 -6
BITMAP
566610266770
588810877740
588813778800
588818877200
588837777000
588857776000
588818888100
588815777700
588810888720
588810377880
000000000000
000078800000
000068800000
000018700000
000036800000
000035000000
ENDCHAR
STARTCHAR kgreenlandic
ENCODING 312
SWIDTH 801 0
DWIDTH 11 0
BBX 11 10 0 0
BITMAP
566610266770
588810877740
588813778800
588818877200
588837777000
588857776000
588818888100
588815777700
588810888720
588810377880
ENDCHAR
STARTCHAR Lacute
ENCODING 313
SWIDTH 604 0
DWIDTH 8 0
BBX 9 17 0 0
BITMAP
0000000100
0000038750
0003878710
0002771000
0000000000
2222000000
5888100000
5888100000
5888100000
5888100000
5888100000
5888100000
5888100000
5888100000
5888877700
5888888800
5888888800
ENDCHAR
STARTCHAR lacute
ENCODING 314
SWIDTH 583 0
DWIDTH 8 0
BBX 8 15 0 0
BITMAP
00000100
00028750
03878710
02771000
00000000
56661000
58881000
58881000
58881000
58881000
58881000
58881000
58888775
58888886
58888886
ENDCHAR
STARTCHAR Lcommaaccent
ENCODING 315
SWIDTH 604 0
DWIDTH 8 0
BBX 8 18 0 -6
BITMAP
22220000
58881000
58881000
58881000
58881000
58881000
58881000
58881000
58881000
58888777
58888888
58888888
00000000
00088800
00078700
00027700
00077400
00052000
ENDCHAR
STARTCHAR lcommaaccent
ENCODING 316
SWIDTH 583 0
DWIDTH 8 0
BBX 8 16 0 -6
BITMAP
56661000
58881000
58881000
58881000
58881000
58881000
58881000
58888775
58888886
58888886
00000000
00188600
00178600
00047600
00078200
00062000
ENDCHAR
STARTCHAR Lcaron
ENCODING 317
SWIDTH 856 0
DWIDTH 12 0
BBX 12 12 0 0
BITMAP
222200000333
588810000777
588810000477
588810000756
588810000781
588810000000
588810000000
588810000000
588810000000
588887770000
588888880000
588888880000
ENDCHAR
STARTCHAR lcaron
ENCODING 318
SWIDTH 584 0
DWIDTH 8 0
BBX 8 11 0 0
BITMAP
00000333
56661777
58881477
58881757
58881681
58881000
58881000
58881000
58888775
58888886
58888886
ENDCHAR
STARTCHAR Ldot
ENCODING 319
SWIDTH 604 0
DWIDTH 8 0
BBX 8 12 0 0
BITMAP
22220000
58881000
58881000
58881000
58881000
58882773
58882773
58882773
58881000
58888777
58888888
58888888
ENDCHAR
STARTCHAR ldot
ENCODING 320
SWIDTH 582 0
DWIDTH 8 0
BBX 8 10 0 0
BITMAP
56661000
58881000
58882773
58882773
58882773
58881000
58881000
58888775
58888886
58888886
ENDCHAR
STARTCHAR Lslash
ENCODING 321
SWIDTH 604 0
DWIDTH 8 0
BBX 9 12 -1 0
BITMAP
0233300000
0588810000
0588810000
0588817300
0588837300
7388837300
7388820000
7888810000
0588810000
0588887770
0588888880
0588888880
ENDCHAR
STARTCHAR lslash
ENCODING 322
SWIDTH 581 0
DWIDTH 8 0
BBX 9 10 -1 0
BITMAP
0577710000
0588810100
0588837300
0588837200
7388857200
7388810000
7788810000
0588887750
0588888860
0588888860
ENDCHAR
STARTCHAR Nacute
ENCODING 323
SWIDTH 877 0
DWIDTH 12 0
BBX 12 17 0 0
BITMAP
000000000100
000000048740
000004878600
000003860000
000000000000
222330002222
5A8873007777
567788007777
569777607777
584888817777
587767887777
588598775777
588847888677
588817777777
588811888857
588810567887
588810088779
ENDCHAR
STARTCHAR nacute
ENCODING 324
SWIDTH 787 0
DWIDTH 11 0
BBX 11 15 0 0
BITMAP
000000001000
000000277600
000028778200
000026710000
000000000000
567770017750
5A7677018860
558888118860
578677818860
585888748860
588577896860
588187777860
588127898560
588107767960
588101888860
ENDCHAR
STARTCHAR Ncommaaccent
ENCODING 325
SWIDTH 877 0
DWIDTH 12 0
BBX 12 18 0 -6
BITMAP
222330002222
5A8873007777
567788007777
569777607777
584888817777
587767887777
588598775777
588847888677
588817777777
588811888857
588810567887
588810088779
000000000000
000018860000
000017860000
000004750000
000017810000
000016200000
ENDCHAR
STARTCHAR ncommaaccent
ENCODING 326
SWIDTH 787 0
DWIDTH 11 0
BBX 11 16 0 -6
BITMAP
567770017750
5A7677018860
558888118860
578677818860
585888748860
588577896860
588187777860
588127898560
588107767960
588101888860
000000000000
000088800000
000078700000
000018700000
000056600000
000043000000
ENDCHAR
STARTCHAR Ncaron
ENCODING 327
SWIDTH 877 0
DWIDTH 12 0
BBX 12 16 0 0
BITMAP
000077661000
000064880000
00001B750000
000005400000
222330002222
5A8873007777
567788007777
569777607777
584888817777
587767887777
588598775777
588847888677
588817777777
588811888857
588810567887
588810088779
ENDCHAR
STARTCHAR ncaron
ENCODING 328
SWIDTH 787 0
DWIDTH 11 0
BBX 11 15 0 0
BITMAP
000664660000
000179710000
000088800000
000033300000
000000000000
567770017750
5A7677018860
558888118860
578677818860
585888748860
588577896860
588187777860
588127898560
588107767960
588101888860
ENDCHAR
STARTCHAR Eng
ENCODING 330
SWIDTH 874 0
DWIDTH 12 0
BBX 12 17 0 -5
BITMAP
222330002222
5A8874008888
567888108888
578767708888
584888738888
588677878888
588598758888
588838868888
588816668888
588810958888
588810368888
588810048888
000000028887
000000479774
000000488780
000000477810
000000353000
ENDCHAR
STARTCHAR eng
ENCODING 331
SWIDTH 691 0
DWIDTH 10 0
BBX 9 14 0 -4
BITMAP
5677706770
5A76777880
5588888880
578777A880
5859888880
588677A880
5881888880
588127A880
5881078880
588101A880
0000007880
0000047880
0000047840
0000048300
ENDCHAR
STARTCHAR Omacron
ENCODING 332
SWIDTH 933 0
DWIDTH 13 0
BBX 13 13 0 -1
BITMAP
00016777610000
00487777785000
04797878797400
08976777679810
47778000867750
77771000077770
77770000077770
77772000277770
37888303978740
08878777878800
01878777888200
00187777782000
00002676200000
ENDCHAR
STARTCHAR omacron
ENCODING 333
SWIDTH 833 0
DWIDTH 12 0
BBX 12 12 0 -1
BITMAP
000025410000
003878887100
047878886900
188788797670
577783479870
788800067772
788800058772
677770288870
178877787670
056877787810
005877778100
000157630000
ENDCHAR
STARTCHAR Obreve
ENCODING 334
SWIDTH 933 0
DWIDTH 13 0
BBX 13 16 0 -1
BITMAP
00004525400000
00001898200000
00000000000000
00016777610000
00487777785000
04797878797400
08976777679810
47778000867750
77771000077770
77770000077770
77772000277770
37888303978740
08878777878800
01878777888200
00187777782000
00002676200000
ENDCHAR
STARTCHAR obreve
ENCODING 335
SWIDTH 833 0
DWIDTH 12 0
BBX 12 14 0 -1
BITMAP
000263550000
000079840000
000025410000
003878887100
047878886900
188788797670
577783479870
788800067772
788800058772
677770288870
178877787670
056877787810
005877778100
000157630000
ENDCHAR
STARTCHAR Ohungarumlaut
ENCODING 336
SWIDTH 933 0
DWIDTH 13 0
BBX 14 18 0 -1
BITMAP
00000001000010
00000587304873
00058785587860
00048400485000
00000000000000
00016777610000
00487777785000
04797878797400
08976777679810
47778000867750
77771000077770
77770000077770
77772000277770
37888303978740
08878777878800
01878777888200
00187777782000
00002676200000
ENDCHAR
STARTCHAR ohungarumlaut
ENCODING 337
SWIDTH 833 0
DWIDTH 12 0
BBX 13 16 0 -1
BITMAP
00000010000100
00003874028750
00487863878710
00386002771000
00002541000000
00387888710000
04787888690000
18878879767000
57778347987000
78880006777200
78880005877200
67777028887000
17887778767000
05687778781000
00587777810000
00015763000000
ENDCHAR
STARTCHAR OE
ENCODING 338
SWIDTH 1317 0
DWIDTH 18 0
BBX 18 13 0 -1
BITMAP
000167777122455555
004877787787A88887
047978787887A88887
089767776787822222
577780008687700000
778700000787A77300
777700000787A77300
777720002787A77300
378893039787700000
088787778687A77776
018787777787A88887
001877777887A88887
000026762000000000
ENDCHAR
STARTCHAR oe
ENCODING 339
SWIDTH 1174 0
DWIDTH 16 0
BBX 16 12 0 -1
BITMAP
0000254100000000
0038788817787776
0478421708897776
1885620968897776
5704834788852221
7887000628897775
7888000528897775
6731702878864443
1787264778897776
0568075508898887
0058777708898887
0001576300000000
ENDCHAR
STARTCHAR Racute
ENCODING 340
SWIDTH 843 0
DWIDTH 12 0
BBX 12 17 0 0
BITMAP
000000010000
000005873000
000587850000
000484000000
000000000000
255555542000
568888887810
586888888780
588688889872
588832247775
588868887774
588868877881
588868877750
58886899B800
588810888800
588810588830
588810088870
ENDCHAR
STARTCHAR Rcommaaccent
ENCODING 342
SWIDTH 843 0
DWIDTH 12 0
BBX 12 18 0 -6
BITMAP
255555542000
568888887810
586888888780
588688889872
588832247775
588868887774
588868877881
588868877750
58886899B800
588810888800
588810588830
588810088870
000000000000
000088800000
000078700000
000018700000
000046700000
000034000000
ENDCHAR
STARTCHAR rcommaaccent
ENCODING 343
SWIDTH 831 0
DWIDTH 12 0
BBX 12 16 0 -6
BITMAP
587777777200
578777777730
587877777880
588787788772
588867787772
588867777890
588867777840
5888689AB500
588810888800
588810788810
000000000000
000088800000
000078700000
000028700000
000067500000
000053000000
ENDCHAR
STARTCHAR Rcaron
ENCODING 344
SWIDTH 843 0
DWIDTH 12 0
BBX 12 16 0 0
BITMAP
007777000000
008487000000
003B72000000
000540000000
255555542000
568888887810
586888888780
588688889872
588832247775
588868887774
588868877881
588868877750
58886899B800
588810888800
588810588830
588810088870
ENDCHAR
STARTCHAR rcaron
ENCODING 345
SWIDTH 831 0
DWIDTH 12 0
BBX 12 15 0 0
BITMAP
000166770000
000084770000
00004B720000
000005400000
000000000000
587777777200
578777777730
587877777880
588787788772
588867787772
588867777890
588867777840
5888689AB500
588810888800
588810788810
ENDCHAR
STARTCHAR Sacute
ENCODING 346
SWIDTH 682 0
DWIDTH 10 0
BBX 10 18 0 -1
BITMAP
0000000010
0000006872
0000687840
0000584000
0000000000
0047777500
0767778781
3788777720
7776775100
7777653000
5678877910
0878888670
0188879870
0001187871
0078778870
2778777670
3877777800
0036762000
ENDCHAR
STARTCHAR sacute
ENCODING 347
SWIDTH 683 0
DWIDTH 10 0
BBX 10 16 0 -1
BITMAP
0000000010
0000006872
0000687840
0000584000
0000110000
0288887720
1878878871
7767668520
8774220000
4787888810
0688887690
0013459881
0175448871
4788887670
1787888800
0002320000
ENDCHAR
STARTCHAR Scircumflex
ENCODING 348
SWIDTH 682 0
DWIDTH 10 0
BBX 10 17 0 -1
BITMAP
0003970000
0007772000
0017787000
0023233000
0047777500
0767778781
3788777720
7776775100
7777653000
5678877910
0878888670
0188879870
0001187871
0078778870
2778777670
3877777800
0036762000
ENDCHAR
STARTCHAR scircumflex
ENCODING 349
SWIDTH 683 0
DWIDTH 10 0
BBX 10 15 0 -1
BITMAP
0003970000
0007772000
0008787000
0023133000
0288887720
1878878871
7767668520
8774220000
4787888810
0688887690
0013459881
0175448871
4788887670
1787888800
0002320000
ENDCHAR
STARTCHAR Scedilla
ENCODING 350
SWIDTH 682 0
DWIDTH 10 0
BBX 10 18 0 -6
BITMAP
0047777500
0767778781
3788777720
7776775100
7777653000
5678877910
0878888670
0188879870
0001187871
0078778870
2778777670
3877777800
0036982000
0027570000
0086750000
0078420000
0057740000
0002420000
ENDCHAR
STARTCHAR scedilla
ENCODING 351
SWIDTH 683 0
DWIDTH 10 0
BBX 10 16 0 -5
BITMAP
0000110000
0288887720
1878878871
7767668520
8774220000
4787888810
0688887690
0013459881
0175448871
4788887670
1787998800
0029890000
0076750000
0078420000
0057740000
0002420000
ENDCHAR
STARTCHAR Scaron
ENCODING 352
SWIDTH 682 0
DWIDTH 10 0
BBX 10 17 0 -1
BITMAP
0016677000
0008576000
0005A81000
0000540000
0047777500
0767778781
3788777720
7776775100
7777653000
5678877910
0878888670
0188879870
0001187871
0078778870
2778777670
3877777800
0036762000
ENDCHAR
STARTCHAR scaron
ENCODING 353
SWIDTH 683 0
DWIDTH 10 0
BBX 10 16 0 -1
BITMAP
0016677000
0008576000
0005A81000
0000540000
0000110000
0288887720
1878878871
7767668520
8774220000
4787888810
0688887690
0013459881
0175448871
4788887670
1787888800
0002320000
ENDCHAR
STARTCHAR Tcommaaccent
ENCODING 354
SWIDTH 591 0
DWIDTH 8 0
BBX 8 17 0 -5
BITMAP
35555554
48888886
48888886
12888822
00777700
00777700
00777700
00777700
00777700
00777700
00777700
00799700
00787000
04687000
04763000
01976000
00133000
ENDCHAR
STARTCHAR tcommaaccent
ENCODING 355
SWIDTH 588 0
DWIDTH 8 0
BBX 8 15 0 -5
BITMAP
47777776
47777776
47888876
00888800
00888800
00888800
00888800
00888800
00888800
00899800
00777000
04687000
05763000
01976000
00133000
ENDCHAR
STARTCHAR Tcaron
ENCODING 356
SWIDTH 591 0
DWIDTH 8 0
BBX 8 16 0 0
BITMAP
00776610
00748800
001B7400
00054000
35555554
48888886
48888886
12888822
00777700
00777700
00777700
00777700
00777700
00777700
00777700
00777700
ENDCHAR
STARTCHAR tcaron
ENCODING 357
SWIDTH 842 0
DWIDTH 12 0
BBX 12 11 0 0
BITMAP
000000001442
477777762885
477777761585
478888761963
008888001870
008888000000
008888000000
008888000000
008888000000
008888000000
008888000000
ENDCHAR
STARTCHAR Tbar
ENCODING 358
SWIDTH 591 0
DWIDTH 8 0
BBX 8 12 0 0
BITMAP
35555554
48888886
48888886
12888822
00777700
47777776
47777776
48877776
00777700
00777700
00777700
00777700
ENDCHAR
STARTCHAR tbar
ENCODING 359
SWIDTH 588 0
DWIDTH 8 0
BBX 8 10 0 0
BITMAP
47777776
47777776
47888876
00888800
11788811
48788876
24788843
36888854
00888800
00888800
ENDCHAR
STARTCHAR Utilde
ENCODING 360
SWIDTH 905 0
DWIDTH 13 0
BBX 13 17 0 -1
BITMAP
00035555032000
00768888766000
00785888791000
00111222200000
23330000222200
78880000688810
78880000688810
78880000688810
78880000688810
78880000688810
78880000688810
68872000778700
37779204788800
08767777877500
02877887768000
00287777770000
00003675100000
ENDCHAR
STARTCHAR utilde
ENCODING 361
SWIDTH 795 0
DWIDTH 11 0
BBX 11 15 0 -1
BITMAP
002555512200
047788867800
077488888300
011022220000
666600066660
788800088880
788800088880
788800088880
788800088880
687800088880
577760577870
178877788720
056877786700
005777776000
000157610000
ENDCHAR
STARTCHAR Umacron
ENCODING 362
SWIDTH 905 0
DWIDTH 13 0
BBX 13 13 0 -1
BITMAP
23330000222200
78880000688810
78880000688810
78880000688810
78880000688810
78880000688810
78880000688810
68872000778700
37779204788800
08767777877500
02877887768000
00287777770000
00003675100000
ENDCHAR
STARTCHAR umacron
ENCODING 363
SWIDTH 795 0
DWIDTH 11 0
BBX 11 11 0 -1
BITMAP
666600066660
788800088880
788800088880
788800088880
788800088880
687800088880
577760577870
178877788720
056877786700
005777776000
000157610000
ENDCHAR
STARTCHAR Ubreve
ENCODING 364
SWIDTH 905 0
DWIDTH 13 0
BBX 13 16 0 -1
BITMAP
00004525300000
00003897000000
00000000000000
23330000222200
78880000688810
78880000688810
78880000688810
78880000688810
78880000688810
78880000688810
68872000778700
37779204788800
08767777877500
02877887768000
00287777770000
00003675100000
ENDCHAR
STARTCHAR ubreve
ENCODING 365
SWIDTH 795 0
DWIDTH 11 0
BBX 11 14 0 -1
BITMAP
000452540000
000179820000
000000000000
666600066660
788800088880
788800088880
788800088880
788800088880
687800088880
577760577870
178877788720
056877786700
005777776000
000157610000
ENDCHAR
STARTCHAR Uring
ENCODING 366
SWIDTH 905 0
DWIDTH 13 0
BBX 13 18 0 -1
BITMAP
00000462000000
00004878000000
00006729200000
00002897000000
00000020000000
23330000222200
78880000688810
78880000688810
78880000688810
78880000688810
78880000688810
78880000688810
68872000778700
37779204788800
08767777877500
02877887768000
00287777770000
00003675100000
ENDCHAR
STARTCHAR uring
ENCODING 367
SWIDTH 795 0
DWIDTH 11 0
BBX 11 16 0 -1
BITMAP
000026300000
000186820000
000491750000
000089810000
000002000000
666600066660
788800088880
788800088880
788800088880
788800088880
687800088880
577760577870
178877788720
056877786700
005777776000
000157610000
ENDCHAR
STARTCHAR Uhungarumlaut
ENCODING 368
SWIDTH 905 0
DWIDTH 13 0
BBX 14 18 0 -1
BITMAP
00000001000010
00001687106872
00178784687840
00158300584000
00000000000000
23330000222200
78880000688810
78880000688810
78880000688810
78880000688810
78880000688810
78880000688810
68872000778700
37779204788800
08767777877500
02877887768000
00287777770000
00003675100000
ENDCHAR
STARTCHAR uhungarumlaut
ENCODING 369
SWIDTH 795 0
DWIDTH 11 0
BBX 13 16 0 -1
BITMAP
00000010000100
00005873048740
00587855878600
00485003850000
00000000000000
66660006666000
78880008888000
78880008888000
78880008888000
78880008888000
68780008888000
57776057787000
17887778872000
05687778670000
00577777600000
00015761000000
ENDCHAR
STARTCHAR Uogonek
ENCODING 370
SWIDTH 905 0
DWIDTH 13 0
BBX 13 16 0 -4
BITMAP
23330000222200
78880000688810
78880000688810
78880000688810
78880000688810
78880000688810
78880000688810
68872000778700
37779204788800
08767777877500
02877887768000
00287CC7770000
00009CC5100000
00007810000000
00007770000000
00007770000000
ENDCHAR
STARTCHAR uogonek
ENCODING 371
SWIDTH 794 0
DWIDTH 11 0
BBX 11 14 0 -4
BITMAP
666600066660
788800088880
788800088880
788800088880
788800088880
687800088880
577760577870
178877788720
056877786700
0057BD776000
0006CD610000
000781000000
000777000000
000777000000
ENDCHAR
STARTCHAR Ycircumflex
ENCODING 374
SWIDTH 789 0
DWIDTH 11 0
BBX 11 16 0 0
BITMAP
000067600000
000088800000
000378740000
000331330000
222200022220
588820188860
088870788800
068882888600
017889888100
006758887000
001798881000
000788870000
000388840000
000388840000
000388840000
000388840000
ENDCHAR
STARTCHAR ycircumflex
ENCODING 375
SWIDTH 733 0
DWIDTH 10 0
BBX 10 14 0 0
BITMAP
0000B62000
0003677000
0008688000
0003333100
6666006666
2888617776
0788877771
0278777860
0078788810
0027788700
0009888100
0007888000
0007888000
0007888000
ENDCHAR
STARTCHAR Ydieresis
ENCODING 376
SWIDTH 789 0
DWIDTH 11 0
BBX 11 14 0 0
BITMAP
007770666000
005550555000
222200022220
588820188860
088870788800
068882888600
017889888100
006758887000
001798881000
000788870000
000388840000
000388840000
000388840000
000388840000
ENDCHAR
STARTCHAR Zacute
ENCODING 377
SWIDTH 854 0
DWIDTH 12 0
BBX 12 17 0 0
BITMAP
000000000100
000000058730
000006878500
000004840000
000000000000
255555555552
3888888874A3
388888847883
388886387873
122226887873
000187878840
005887878100
187878850000
377878577773
478867888883
478788888883
5C8888888883
ENDCHAR
STARTCHAR zacute
ENCODING 378
SWIDTH 714 0
DWIDTH 10 0
BBX 10 15 0 0
BITMAP
0000000010
0000005873
0000587850
0000485000
0000000000
3888875673
3888789764
3888976770
0003789710
0009876600
0066788000
0289873000
0976797773
4789878884
5876888884
ENDCHAR
STARTCHAR Zdotaccent
ENCODING 379
SWIDTH 854 0
DWIDTH 12 0
BBX 12 16 0 0
BITMAP
000015510000
000028810000
000028810000
000012200000
255555555552
3888888874A3
388888847883
388886387873
122226887873
000187878840
005887878100
187878850000
377878577773
478867888883
478788888883
5C8888888883
ENDCHAR
STARTCHAR zdotaccent
ENCODING 380
SWIDTH 714 0
DWIDTH 10 0
BBX 10 14 0 0
BITMAP
0001551000
0001882000
0001882000
0000221000
3888875673
3888789764
3888976770
0003789710
0009876600
0066788000
0289873000
0976797773
4789878884
5876888884
ENDCHAR
STARTCHAR Zcaron
ENCODING 381
SWIDTH 854 0
DWIDTH 12 0
BBX 12 16 0 0
BITMAP
000077770000
000084870000
00003B720000
000005400000
255555555552
3888888874A3
388888847883
388886387873
122226887873
000187878840
005887878100
187878850000
377878577773
478867888883
478788888883
5C8888888883
ENDCHAR
STARTCHAR zcaron
ENCODING 382
SWIDTH 714 0
DWIDTH 10 0
BBX 10 15 0 0
BITMAP
0007777100
0007488000
0002B73000
0000540000
0000000000
3888875673
3888789764
3888976770
0003789710
0009876600
0066788000
0289873000
0976797773
4789878884
5876888884
ENDCHAR
STARTCHAR florin
ENCODING 402
SWIDTH 388 0
DWIDTH 5 0
BBX 5 13 0 -1
BITMAP
003870
028770
077670
078700
498850
498850
498850
088800
088800
088800
498800
486700
488100
ENDCHAR
STARTCHAR uni01C4
ENCODING 452
SWIDTH 1740 0
DWIDTH 24 0
BBX 24 16 0 0
BITMAP
000000000000000066464000
000000000000000037981000
000000000000000008870000
000000000000000003320000
255555541000055555555554
568888878600088888888497
586888888670088888864877
588688879874088887367877
588832266788022223878776
588810008888000067878771
588810007888002878788400
588810008888057878781000
588877787778078788577776
588888887982078786788886
588888888750088778888886
5988888883000D9888888886
ENDCHAR
STARTCHAR uni01C5
ENCODING 453
SWIDTH 1601 0
DWIDTH 22 0
BBX 22 15 0 0
BITMAP
0000000000000006646600
0000000000000002797100
0000000000000000888000
2555555410000000333000
5688888786000000000000
5868888886700888867765
5886888798740888896688
5888322667880888779872
5888100088880000986760
5888100078880005678800
5888100088880018987300
5888777877780087678000
5888888879820478986776
5888888887500987688887
5988888883002678978887
ENDCHAR
STARTCHAR Scommaaccent
ENCODING 536
SWIDTH 682 0
DWIDTH 10 0
BBX 10 18 0 -6
BITMAP
0047777500
0767778781
3788777720
7776775100
7777653000
5678877910
0878888670
0188879870
0001187871
0078778870
2778777670
3877777800
0036762000
0008880000
0007870000
0001870000
0004670000
0003400000
ENDCHAR
STARTCHAR scommaaccent
ENCODING 537
SWIDTH 683 0
DWIDTH 10 0
BBX 10 17 0 -6
BITMAP
0000110000
0288887720
1878878871
7767668520
8774220000
4787888810
0688887690
0013459881
0175448871
4788887670
1787888800
0002320000
0008880000
0007870000
0001870000
0004670000
0003400000
ENDCHAR
STARTCHAR uni021A
ENCODING 538
SWIDTH 591 0
DWIDTH 8 0
BBX 8 18 0 -6
BITMAP
35555554
48888886
48888886
12888822
00777700
00777700
00777700
00777700
00777700
00777700
00777700
00777700
00000000
00288500
00278500
00057500
00178100
00161000
ENDCHAR
STARTCHAR uni021B
ENCODING 539
SWIDTH 588 0
DWIDTH 8 0
BBX 8 16 0 -6
BITMAP
47777776
47777776
47888876
00888800
00888800
00888800
00888800
00888800
00888800
00888800
00000000
00288500
00278500
00057500
00178100
00161000
ENDCHAR
STARTCHAR uni0237
ENCODING 567
SWIDTH 393 0
DWIDTH 6 0
BBX 5 12 0 -2
BITMAP
066660
077770
077770
077770
077770
077770
077770
087870
577870
579810
578300
450000
ENDCHAR
STARTCHAR circumflex
ENCODING 710
SWIDTH 376 0
DWIDTH 5 0
BBX 5 4 0 10
BITMAP
047700
088810
278760
231330
ENDCHAR
STARTCHAR caron
ENCODING 711
SWIDTH 362 0
DWIDTH 5 0
BBX 5 4 0 10
BITMAP
564660
179720
088800
023300
ENDCHAR
STARTCHAR breve
ENCODING 728
SWIDTH 360 0
DWIDTH 5 0
BBX 5 2 0 11
BITMAP
452540
189820
ENDCHAR
STARTCHAR dotaccent
ENCODING 729
SWIDTH 255 0
DWIDTH 4 0
BBX 3 4 0 8
BITMAP
2550
3880
3880
1220
ENDCHAR
STARTCHAR ring
ENCODING 730
SWIDTH 330 0
DWIDTH 5 0
BBX 5 5 0 10
BITMAP
046200
487800
672920
289700
002000
ENDCHAR
STARTCHAR ogonek
ENCODING 731
SWIDTH 250 0
DWIDTH 4 0
BBX 3 5 0 -4
BITMAP
0370
4770
7720
7770
7770
ENDCHAR
STARTCHAR tilde
ENCODING 732
SWIDTH 665 0
DWIDTH 9 0
BBX 9 4 0 7
BITMAP
0155552220
2878886880
7748888850
1102222000
ENDCHAR
STARTCHAR hungarumlaut
ENCODING 733
SWIDTH 837 0
DWIDTH 12 0
BBX 12 4 0 10
BITMAP
000011000010
001787016871
178783787830
158201583000
ENDCHAR
STARTCHAR uni0307
ENCODING 775
SWIDTH 260 0
DWIDTH 4 0
BBX 3 3 0 5
BITMAP
3770
3770
3770
ENDCHAR
STARTCHAR uni030F
ENCODING 783
SWIDTH 554 0
DWIDTH 8 0
BBX 8 5 0 10
BITMAP
67318800
18808810
08813760
03760880
00550451
ENDCHAR
STARTCHAR uni0311
ENCODING 785
SWIDTH 375 0
DWIDTH 5 0
BBX 5 2 0 11
BITMAP
056500
476760
ENDCHAR
STARTCHAR uni0326
ENCODING 806
SWIDTH 274 0
DWIDTH 4 0
BBX 4 5 0 -6
BITMAP
5882
5882
0772
2690
2510
ENDCHAR
STARTCHAR Omega
ENCODING 937
SWIDTH 92 0
DWIDTH 1 0
BBX 1 1 0 0
BITMAP
00
ENDCHAR
STARTCHAR uni00B5.dup2
ENCODING 956
SWIDTH 802 0
DWIDTH 11 0
BBX 11 12 0 -2
BITMAP
477710066660
588820088880
588820088880
588820088880
588820088880
588820088880
588820377880
588867797740
588867787800
588868778000
588857620000
244410000000
ENDCHAR
STARTCHAR pi
ENCODING 960
SWIDTH 92 0
DWIDTH 1 0
BBX 1 1 0 0
BITMAP
00
ENDCHAR
STARTCHAR endash
ENCODING 8211
SWIDTH 473 0
DWIDTH 7 0
BBX 6 3 0 4
BITMAP
377777
377777
377777
ENDCHAR
STARTCHAR emdash
ENCODING 8212
SWIDTH 615 0
DWIDTH 9 0
BBX 8 3 0 4
BITMAP
37777777
37777777
37777777
ENDCHAR
STARTCHAR quoteleft
ENCODING 8216
SWIDTH 254 0
DWIDTH 4 0
BBX 3 6 0 6
BITMAP
0140
2870
6750
7870
7880
1110
ENDCHAR
STARTCHAR quoteright
ENCODING 8217
SWIDTH 251 0
DWIDTH 4 0
BBX 3 6 0 6
BITMAP
2220
7880
4780
3980
3860
1000
ENDCHAR
STARTCHAR quotesinglbase
ENCODING 8218
SWIDTH 252 0
DWIDTH 4 0
BBX 3 5 0 -2
BITMAP
3440
7880
3780
3880
3840
ENDCHAR
STARTCHAR quotedblleft
ENCODING 8220
SWIDTH 535 0
DWIDTH 8 0
BBX 7 6 0 6
BITMAP
01400140
28703870
67507740
78708860
78808880
11101110
ENDCHAR
STARTCHAR quotedblright
ENCODING 8221
SWIDTH 532 0
DWIDTH 7 0
BBX 7 6 0 6
BITMAP
22202220
78807770
47805770
39803980
38604850
10001000
ENDCHAR
STARTCHAR quotedblbase
ENCODING 8222
SWIDTH 533 0
DWIDTH 7 0
BBX 7 5 0 -2
BITMAP
34404440
78808880
37804770
38804780
38404840
ENDCHAR
STARTCHAR dagger
ENCODING 8224
SWIDTH 636 0
DWIDTH 9 0
BBX 9 12 0 0
BITMAP
0013331000
0038884000
0038884000
489888A840
489888A840
4788889730
0038884000
0038884000
0038884000
0038884000
0038884000
0038884000
ENDCHAR
STARTCHAR daggerdbl
ENCODING 8225
SWIDTH 648 0
DWIDTH 9 0
BBX 9 12 0 0
BITMAP
0002222000
0018885000
1248887210
488888A840
488888A840
2458888430
0018885000
378888A740
378888A740
478888A740
0018885000
0018885000
ENDCHAR
STARTCHAR bullet
ENCODING 8226
SWIDTH 501 0
DWIDTH 7 0
BBX 7 7 0 1
BITMAP
03878300
18878820
67201770
67100770
27868730
05888500
00010000
ENDCHAR
STARTCHAR ellipsis
ENCODING 8230
SWIDTH 676 0
DWIDTH 9 0
BBX 9 3 0 0
BITMAP
3774774760
3884874870
3884874870
ENDCHAR
STARTCHAR perthousand
ENCODING 8240
SWIDTH 447 0
DWIDTH 6 0
BBX 6 14 0 -2
BITMAP
000222
000888
001787
004784
007881
008880
017870
047840
078810
088800
178700
478400
788100
233000
ENDCHAR
STARTCHAR guilsinglleft
ENCODING 8249
SWIDTH 465 0
DWIDTH 7 0
BBX 6 8 0 1
BITMAP
000016
003887
487887
387783
388577
288787
001687
000002
ENDCHAR
STARTCHAR guilsinglright
ENCODING 8250
SWIDTH 465 0
DWIDTH 7 0
BBX 6 8 0 1
BITMAP
330000
378610
378778
168788
285888
388786
388300
210000
ENDCHAR
STARTCHAR fraction
ENCODING 8260
SWIDTH 447 0
DWIDTH 6 0
BBX 6 14 0 -2
BITMAP
000222
000888
001787
004784
007881
008880
017870
047840
078810
088800
178700
478400
788100
233000
ENDCHAR
STARTCHAR uni2074
ENCODING 8308
SWIDTH 528 0
DWIDTH 7 0
BBX 7 10 0 2
BITMAP
00122200
00877300
02888000
08774000
18893630
56664740
48888870
48888870
24446860
00003630
ENDCHAR
STARTCHAR Euro
ENCODING 8364
SWIDTH 781 0
DWIDTH 11 0
BBX 11 13 0 -1
BITMAP
000016777730
000487877830
004796877700
018976877500
057778000000
598887772000
288883331000
388876551000
047779301200
008867777600
002888777720
000187778740
000002676400
ENDCHAR
STARTCHAR trademark
ENCODING 8482
SWIDTH 1503 0
DWIDTH 21 0
BBX 21 9 0 3
BITMAP
3555555412330000022220
488888863C871000088860
4888888638777000567860
1249972237987200888460
0028850038778806677760
0028850038798738885860
0028850038867896768860
0028850038848776818860
002885003884188A508860
ENDCHAR
STARTCHAR partialdiff
ENCODING 8706
SWIDTH 108 0
DWIDTH 2 0
BBX 1 1 0 0
BITMAP
00
ENDCHAR
STARTCHAR uni2206
ENCODING 8710
SWIDTH 108 0
DWIDTH 2 0
BBX 1 1 0 0
BITMAP
00
ENDCHAR
STARTCHAR product
ENCODING 8719
SWIDTH 521 0
DWIDTH 7 0
BBX 7 10 0 0
BITMAP
00A66200
03777700
08688800
17887750
67748880
67738880
17887760
08887810
04776700
0088A300
ENDCHAR
STARTCHAR summation
ENCODING 8721
SWIDTH 108 0
DWIDTH 2 0
BBX 1 1 0 0
BITMAP
00
ENDCHAR
STARTCHAR minus
ENCODING 8722
SWIDTH 555 0
DWIDTH 8 0
BBX 8 4 0 4
BITMAP
26666661
38888881
38888881
01111110
ENDCHAR
STARTCHAR radical
ENCODING 8730
SWIDTH 108 0
DWIDTH 2 0
BBX 1 1 0 0
BITMAP
00
ENDCHAR
STARTCHAR infinity
ENCODING 8734
SWIDTH 108 0
DWIDTH 2 0
BBX 1 1 0 0
BITMAP
00
ENDCHAR
STARTCHAR integral
ENCODING 8747
SWIDTH 362 0
DWIDTH 5 0
BBX 5 13 0 -1
BITMAP
004750
047850
088650
078700
088800
088800
088800
088800
088800
088800
588800
587600
587000
ENDCHAR
STARTCHAR approxequal
ENCODING 8776
SWIDTH 665 0
DWIDTH 9 0
BBX 9 8 0 3
BITMAP
0155552220
2878886880
7748888850
1102222000
0155552220
2878886880
7748888850
1102222000
ENDCHAR
STARTCHAR notequal
ENCODING 8800
SWIDTH 473 0
DWIDTH 7 0
BBX 6 14 0 -2
BITMAP
000222
000888
001787
26ADDA
38FFF8
38FFF8
129991
3BEEB7
3FFF88
3FFF88
188800
478400
788100
233000
ENDCHAR
STARTCHAR lessequal
ENCODING 8804
SWIDTH 108 0
DWIDTH 2 0
BBX 1 1 0 0
BITMAP
00
ENDCHAR
STARTCHAR greaterequal
ENCODING 8805
SWIDTH 108 0
DWIDTH 2 0
BBX 1 1 0 0
BITMAP
00
ENDCHAR
STARTCHAR lozenge
ENCODING 9674
SWIDTH 521 0
DWIDTH 7 0
BBX 7 10 0 0
BITMAP
00A66200
03777700
08688800
17887750
67748880
67738880
17887760
08887810
04776700
0088A300
ENDCHAR
STARTCHAR uniF8FF
ENCODING 63743
SWIDTH 108 0
DWIDTH 2 0
BBX 1 1 0 0
BITMAP
00
ENDCHAR
STARTCHAR uniFB01
ENCODING 64257
SWIDTH 962 0
DWIDTH 13 0
BBX 13 10 0 0
BITMAP
56668777266660
58888777277770
58888777277770
58881000077770
58888777077770
58888777077770
58888777077770
58881000077770
58881000077770
58881000077770
ENDCHAR
STARTCHAR uniFB02
ENCODING 64258
SWIDTH 1208 0
DWIDTH 17 0
BBX 17 10 0 0
BITMAP
566687772666600000
588887772777700000
588887772777700000
588810000777700000
588887770777700000
588887770777700000
588887770777700000
588810000777877730
588810000777988840
588810000777988840
ENDCHAR
STARTCHAR .notdef
ENCODING -1
SWIDTH 108 0
DWIDTH 2 0
BBX 1 1 0 0
BITMAP
00
ENDCHAR
ENDFONT
